<ttFont>
<head>
    <!-- Most of this table will be recalculated by the compiler -->
    <tableVersion value="1.0"/>
    <fontRevision value="1.0"/>
    <checkSumAdjustment value="0xcce885f6"/>
    <magicNumber value="0x5f0f3cf5"/>
    <flags value="00000000 00000011"/>
    <unitsPerEm value="1000"/>
    <created value="Fri Jun 15 14:43:18 2007"/>
    <modified value="Fri Jun 15 14:43:18 2007"/>
    <xMin value="-54"/>
    <yMin value="-165"/>
    <xMax value="1125"/>
    <yMax value="893"/>
    <macStyle value="00000000 00000000"/>
    <lowestRecPPEM value="3"/>
    <fontDirectionHint value="2"/>
    <indexToLocFormat value="0"/>
    <glyphDataFormat value="0"/>
  </head>
          <CharString index="0">
            35 vstem
            -107 callgsubr
            return
          </CharString>
          <CharString index="1">
            35 vstem
            308 -12 rmoveto
            92 68 44 60 46 hvcurveto
            -24 19 rlineto
            -52 -40 -63 -41 -78 hhcurveto
            -113 -97 85 137 -6 hvcurveto
            437 -76 callgsubr
            -139 -102 -114 -148 -84 callgsubr
            -161 114 -103 136 vhcurveto
            -215 -55 callsubr
            114 -60 callsubr
            return
          </CharString>
          <CharString index="2">
            34 vstem
            -106 callgsubr
            return
          </CharString>
          <CharString index="3">
            hstem
            58 35 402 -106 callsubr
            return
          </CharString>
          <CharString index="4">
            -102 callsubr
            -177 -127 -152 -186 vhcurveto
            return
          </CharString>
          <CharString index="5">
            rmoveto
            -187 -129 154 177 hvcurveto
            -80 callgsubr
            186 129 -154 -177 -84 callgsubr
            return
          </CharString>
          <CharString index="6">
            -97 callsubr
            -67 callsubr
            return
          </CharString>
          <CharString index="7">
            -89 callgsubr
            -332 705 rlineto
            -32 hlineto
            -186 -470 -71 callgsubr
            return
          </CharString>
          <CharString index="8">
            -81 callsubr
            -97 callgsubr
            return
          </CharString>
          <CharString index="9">
            -88 callgsubr
            -22 -20 5 -31 hhcurveto
            -42 -33 -13 -24 -25 hvcurveto
            -27 -80 callsubr
            -340 -475 rmoveto
            -99 callsubr
            return
          </CharString>
          <CharString index="10">
            1 1 0 1 -1 hhcurveto
            191 -137 170 -212 -71 callsubr
            -84 callgsubr
            return
          </CharString>
          <CharString index="11">
            rmoveto
            28 hlineto
            87 85 86 -85 -19 callsubr
            -103 122 rlineto
            -24 hlineto
            endchar
          </CharString>
          <CharString index="12">
            -75 callsubr
            211 -102 callgsubr
            return
          </CharString>
          <CharString index="13">
            -14 callgsubr
            hintmask 10111100
            -61 callsubr
            hintmask 01111100
            -54 callsubr
            hintmask 10111100
            -90 callgsubr
            return
          </CharString>
          <CharString index="14">
            -51 callgsubr
            181 -20 -104 callgsubr
            return
          </CharString>
          <CharString index="15">
            -86 -55 callgsubr
            207 -20 -104 callsubr
            return
          </CharString>
          <CharString index="16">
            466 hmoveto
            -81 callsubr
            -98 callsubr
            return
          </CharString>
          <CharString index="17">
            25 59 vvcurveto
            57 -48 -65 22 vlineto
            2 -37 -10 -22 -30 -15 rrcurveto
            return
          </CharString>
          <CharString index="18">
            hstem
            69 33 295 33 vstem
            251 -9 rmoveto
            101 78 55 83 -87 callgsubr
            88 -83 29 -92 25 vhcurveto
            -82 23 -71 23 63 -42 callsubr
            56 55 43 83 53 59 -19 -34 48 vhcurveto
            18 27 rlineto
            36 -53 -66 20 -58 hhcurveto
            -103 -69 -57 -75 -70 callsubr
            -84 81 -26 94 -27 vhcurveto
            77 -21 76 -22 -71 -25 callgsubr
            -62 -63 -43 -81 -65 -67 25 44 -56 vhcurveto
            -19 -25 rlineto
            -46 55 78 -28 72 hhcurveto
            return
          </CharString>
          <CharString index="19">
            -38 callsubr
            207 -20 -103 callgsubr
            return
          </CharString>
          <CharString index="20">
            93 62 84 95 -87 callgsubr
            93 -61 85 -94 -93 -62 -85 -94 -84 callgsubr
            -94 62 -84 93 vhcurveto
            return
          </CharString>
          <CharString index="21">
            16 -90 callsubr
            return
          </CharString>
          <CharString index="22">
            rmoveto
            25 hlineto
            -93 128 -39 -20 rlineto
            endchar
          </CharString>
          <CharString index="23">
            rmoveto
            45 15 15 13 24 -74 callsubr
            return
          </CharString>
          <CharString index="24">
            318 -12 rmoveto
            155 106 123 141 -87 callgsubr
            return
          </CharString>
          <CharString index="25">
            -48 callgsubr
            237 -94 callsubr
            return
          </CharString>
          <CharString index="26">
            32 475 181 29 -181 60 hlineto
            return
          </CharString>
          <CharString index="27">
            -27 -15 -44 -58 vvcurveto
            -63 -77 -29 77 vlineto
            return
          </CharString>
          <CharString index="28">
            -34 -55 52 -40 hhcurveto
            -35 -27 -22 -64 -15 hvcurveto
            endchar
          </CharString>
          <CharString index="29">
            -21 callsubr
            211 -96 callgsubr
            return
          </CharString>
          <CharString index="30">
            -24 23 rlineto
            -64 -62 -78 -48 -109 hhcurveto
            -177 -134 149 181 -87 callgsubr
            181 132 149 178 117 71 -49 -56 58 vhcurveto
            24 25 rlineto
            63 -68 -71 48 -130 hhcurveto
            -200 -146 -165 -197 -70 callsubr
            return
          </CharString>
          <CharString index="31">
            hintmask 100101111100111010110110110010110010110110100000
            return
          </CharString>
          <CharString index="32">
            -100 -19 callgsubr
            276 30 176 30 return
          </CharString>
          <CharString index="33">
            34 55 -51 40 hhcurveto
            35 27 21 64 15 hvcurveto
            return
          </CharString>
          <CharString index="34">
            rmoveto
            51 46 42 50 -87 callgsubr
            50 -46 42 -51 -51 -46 -42 -50 -84 callgsubr
            -50 46 -42 51 vhcurveto
            22 vmoveto
            -39 -33 32 38 -87 callgsubr
            38 33 32 39 -40 callsubr
            endchar
          </CharString>
          <CharString index="35">
            136 113 110 153 -87 callgsubr
            154 -113 109 -136 -110 -78 -67 -84 -35 vhcurveto
            return
          </CharString>
          <CharString index="36">
            -212 -138 -170 -191 return
          </CharString>
          <CharString index="37">
            hvcurveto
            -2 vlineto
            return
          </CharString>
          <CharString index="38">
            hintmask 011001111100111010110110110010110010110110100000
            return
          </CharString>
          <CharString index="39">
            -10 23 rlineto
            -1 hlineto
            -10 -23 -7 23 -6 -1 12 -34 rlineto
            1 hlineto
            10 23 11 -23 rlineto
            1 hlineto
            return
          </CharString>
          <CharString index="40">
            -191 137 -170 212 return
          </CharString>
          <CharString index="41">
            7 -3 5 -7 -4 -3 -2 -3 vhcurveto
            -3 3 1 -4 vvcurveto
            -1 -1 -2 -3 -3 -2 3 3 6 5 5 8 15 6 -9 -6 -4 -2 -3 -3 -2 vhcurveto
            9 -3 5 -7 -7 vvcurveto
            return
          </CharString>
          <CharString index="42">
            hmoveto
            -2 -30 vlineto
            -2 11 2 1 rlineto
            0 3 -9 7 vhcurveto
            4 hlineto
            2 2 0 3 hvcurveto
            11 -4 vlineto
            -6 0 -6 0 hvcurveto
            -2 13 2 hlineto
            0 0 -5 6 vhcurveto
            4 10 hlineto
            return
          </CharString>
          <CharString index="43">
            rmoveto
            39 15 -70 callgsubr
          </CharString>
          <CharString index="44">
            rmoveto
            48 65 -21 hlineto
            -2 37 9 22 31 15 -9 18 rcurveline
            -40 -16 -16 -25 -59 vvcurveto
            return
          </CharString>
          <CharString index="45">
            -17 callgsubr
            -69 callgsubr
            return
          </CharString>
          <CharString index="46">
            291 -12 rmoveto
            108 63 72 60 23 hvcurveto
            return
          </CharString>
          <CharString index="47">
            hhcurveto
            126 67 -107 -110 5 hvcurveto
            return
          </CharString>
          <CharString index="48">
            -479 -31 callgsubr
            vstem
            64 -91 -64 callsubr
          </CharString>
          <CharString index="49">
            -30 callgsubr
            -68 callgsubr
          </CharString>
          <CharString index="50">
            -39 callgsubr
            -61 callgsubr
            return
          </CharString>
          <CharString index="51">
            21 -21 475 29 198 31 return
          </CharString>
          <CharString index="52">
            281 rmoveto
            124 6 84 93 return
          </CharString>
          <CharString index="53">
            -120 -12 callgsubr
            -284 vlineto
            return
          </CharString>
          <CharString index="54">
            -46 callgsubr
            470 -20 return
          </CharString>
          <CharString index="55">
            -21 504 -20 return
          </CharString>
          <CharString index="56">
            hstem
            67 hmoveto
            542 31 -494 hlineto
            496 650 rlineto
            19 -527 -31 479 vlineto
            -496 -650 rlineto
            return
          </CharString>
          <CharString index="57">
            -69 callgsubr
            -3 17 rlineto
            -4 hlineto
            -9 1 -11 0 hvcurveto
            -3 hlineto
            -5 23 rlineto
            return
          </CharString>
          <CharString index="58">
            -20 hstem
            99 33 vstem
            99 hmoveto
            33 return
          </CharString>
          <CharString index="59">
            0 31 306 -7 callgsubr
            return
          </CharString>
          <CharString index="60">
            -64 callgsubr
            hstem
            return
          </CharString>
          <CharString index="61">
            -8 29 0 -21 323 28 -2 28 302 29 -8 -20 hstemhm
            54 34 242 34 78 34 242 34 return
          </CharString>
          <CharString index="62">
            194 vlineto
            202 135 -142 -177 -70 callsubr
            -177 -135 -140 -201 vhcurveto
            endchar
          </CharString>
          <CharString index="63">
            rmoveto
            22 16 -153 194 153 194 -22 16 return
          </CharString>
          <CharString index="64">
            -27 callgsubr
            213 -62 callgsubr
            return
          </CharString>
          <CharString index="65">
            vvcurveto
            2 vlineto
            return
          </CharString>
          <CharString index="66">
            -26 callgsubr
            -308 -704 -11 callgsubr
            return
          </CharString>
          <CharString index="67">
            39 33 -32 -38 -84 callgsubr
            -38 -33 -32 -39 vhcurveto
            return
          </CharString>
          <CharString index="68">
            -438 -36 callgsubr
            return
          </CharString>
          <CharString index="69">
            -33 -12 30 468 30 return
          </CharString>
          <CharString index="70">
            1 -2 -3 0 -2 hhcurveto
            -3 -1 -1 -2 -1 1 -1 3 2 3 1 3 2 hvcurveto
            return
          </CharString>
          <CharString index="71">
            rmoveto
            48 65 -48 hlineto
            return
          </CharString>
          <CharString index="72">
            rmoveto
            -3 19 rlineto
            4 -1 -2 1 -6 hhcurveto
            -6 -2 -3 -6 -6 4 -9 11 hvcurveto
            return
          </CharString>
          <CharString index="73">
            rmoveto
            21 -13 18 -12 -7 -4 -5 -9 -20 13 -18 12 8 3 4 9 vhcurveto
            return
          </CharString>
          <CharString index="74">
            3 -2 0 -2 vhcurveto
            -4 hlineto
            -6 -3 -8 0 hvcurveto
            -2 1 2 10 rlineto
            29 return
          </CharString>
          <CharString index="75">
            -12 -139 -21 148 31 466 31 return
          </CharString>
          <CharString index="76">
            rmoveto
            19 hlineto
            57 251 rlineto
            3 -41 vlineto
            return
          </CharString>
          <CharString index="77">
            -21 65 -20 hstem
            71 48 return
          </CharString>
          <CharString index="78">
            2 -2 2 -2 -3 -1 -2 -2 -2 2 -2 2 3 1 2 2 vhcurveto
            return
          </CharString>
          <CharString index="79">
            9 -7 8 -9 -11 -7 -8 -10 -9 7 -8 10 10 7 8 10 vhcurveto
            return
          </CharString>
          <CharString index="80">
            rmoveto
            -685 6 685 hlineto
            return
          </CharString>
          <CharString index="81">
            -12 -13 callgsubr
            return
          </CharString>
          <CharString index="82">
            -52 callsubr
            hstem
            74 48 vstem
            74 439 -36 callsubr
            return
          </CharString>
          <CharString index="83">
            2 vlineto
            127 return
          </CharString>
          <CharString index="84">
            -56 callsubr
            -3 -20 hstemhm
            126 32 return
          </CharString>
          <CharString index="85">
            66 -21 420 -20 hstem
            return
          </CharString>
          <CharString index="86">
            86 -20 callgsubr
            return
          </CharString>
          <CharString index="87">
            57 35 453 return
          </CharString>
          <CharString index="88">
            rlineto
            29 hlineto
            return
          </CharString>
          <CharString index="89">
            -1 3 rlineto
            return
          </CharString>
          <CharString index="90">
            -12 -12 31 2 -21 485 31 214 -20 hstemhm
            return
          </CharString>
          <CharString index="91">
            0 -5 1 -6 vvcurveto
            -21 vlineto
            -6 5 1 0 vhcurveto
            return
          </CharString>
          <CharString index="92">
            616 -21 128 -20 hstem
            return
          </CharString>
          <CharString index="93">
            21 -21 486 30 -12 -20 return
          </CharString>
          <CharString index="94">
            32 370 32 return
          </CharString>
          <CharString index="95">
            190 rlineto
            -31 hlineto
            hintmask 10100000
            -33 -190 rlineto
            return
          </CharString>
          <CharString index="96">
            -21 157 -20 hstem
            return
          </CharString>
          <CharString index="97">
            50 98 50 return
          </CharString>
          <CharString index="98">
            -356 0 callgsubr
            return
          </CharString>
          <CharString index="99">
            -107 -21 926 -20 hstem
            return
          </CharString>
          <CharString index="100">
            -263 -119 -21 854 -20 hstem
            return
          </CharString>
          <CharString index="101">
            -251 -130 25 780 25 hstem
            return
          </CharString>
          <CharString index="102">
            -2 vlineto
            0 return
          </CharString>
          <CharString index="103">
            -32 vlineto
            endchar
          </CharString>
          <CharString index="104">
            -30 callsubr
            vstem
            71 return
          </CharString>
          <CharString index="105">
            -53 125 -21 496 -20 hstem
            return
          </CharString>
          <CharString index="106">
            208 hlineto
            160 113 77 return
          </CharString>
          <CharString index="107">
            rmoveto
            -6 hlineto
            -7 -22 return
          </CharString>
          <CharString index="108">
            0 vvcurveto
            -18 callsubr
            return
          </CharString>
          <CharString index="109" raw="1">
            f7637701 0b  
          </CharString>
          <CharString index="110">
            hstemhm
            51 34 return
          </CharString>
        <CharString name=".notdef">
          endchar
        </CharString>
        <CharString name="A">
          107 21 -21 204 31 470 -94 callgsubr
          endchar
        </CharString>
        <CharString name="AE">
          357 0 31 173 31 102 -7 callgsubr
          hstem
          481 34 vstem
          8 hmoveto
          37 hlineto
          127 204 rlineto
          309 -204 482 31 -448 -6 callgsubr
          443 31 -511 hlineto
          -256 -465 rmoveto
          272 434 rlineto
          18 -434 hlineto
          endchar
        </CharString>
        <CharString name="Aacute">
          -73 callgsubr
          -214 530 -91 callgsubr
        </CharString>
        <CharString name="Acircumflex">
          -53 callsubr
          200 -94 callgsubr
          -316 528 -96 callsubr
        </CharString>
        <CharString name="Adieresis">
          -53 callsubr
          91 64 hstem
          289 -10 callsubr
          vstem
          -100 callsubr
          -152 541 -95 callgsubr
        </CharString>
        <CharString name="Agrave">
          -73 callgsubr
          -211 530 -85 callsubr
        </CharString>
        <CharString name="Aring">
          -46 callgsubr
          600 22 hstem
          290 26 144 25 vstem
          -89 callgsubr
          -318 676 rlineto
          38 12 29 35 40 -42 callsubr
          50 -46 42 -51 -52 -46 -42 -50 -84 callgsubr
          -41 31 -34 37 -13 vhcurveto
          30 18 rmoveto
          -39 -33 32 38 -87 callgsubr
          38 32 32 40 -40 callsubr
          -202 -458 -71 callgsubr
          endchar
        </CharString>
        <CharString name="Atilde">
          -53 callsubr
          87 -38 callgsubr
          hintmask 11111000
          -100 callsubr
          -320 530 -84 callsubr
          hintmask 11110100
          -67 callgsubr
          hintmask 11111000
          -79 callsubr
        </CharString>
        <CharString name="B">
          55 0 31 307 31 300 31 hstem
          104 34 448 34 3 35 -18 callgsubr
          303 hlineto
          156 95 69 116 -87 callgsubr
          95 -75 59 -92 17 vhcurveto
          71 20 58 56 90 -42 callsubr
          46 -16 38 -29 29 vhcurveto
          39 -39 -64 22 -80 hhcurveto
          -288 hlineto
          34 -331 rmoveto
          300 253 vlineto
          123 72 -58 -88 -70 callsubr
          -101 -83 -51 -104 vhcurveto
          -261 -338 rmoveto
          307 274 vlineto
          124 87 -54 -98 -70 callsubr
          -95 -80 -58 -135 vhcurveto
          endchar
        </CharString>
        <CharString name="C">
          62 -26 callsubr
          hstem
          73 35 vstem
          417 -12 rmoveto
          124 85 53 67 66 hvcurveto
          -77 callsubr
          -199 146 -161 198 vhcurveto
          endchar
        </CharString>
        <CharString name="Ccedilla">
          62 -123 -21 132 31 662 2 callgsubr
          vstem
          357 -144 rmoveto
          69 132 119 3 82 51 65 66 rlinecurve
          -77 callsubr
          -193 137 -157 188 -10 vhcurveto
          -76 -115 rlineto
          endchar
        </CharString>
        <CharString name="D">
          108 0 31 638 31 hstem
          104 34 531 35 vstem
          104 -50 callgsubr
          hlineto
          34 -669 rmoveto
          638 -45 callsubr
        </CharString>
        <CharString name="E">
          -53 callgsubr
          -83 callgsubr
          endchar
        </CharString>
        <CharString name="Eacute">
          -63 callgsubr
          210 65 -91 callgsubr
        </CharString>
        <CharString name="Ecircumflex">
          -53 callgsubr
          187 -20 -83 callgsubr
          130 65 -96 callsubr
        </CharString>
        <CharString name="Edieresis">
          -53 callgsubr
          76 64 hstem
          104 34 112 -10 callsubr
          -86 callgsubr
          294 76 -95 callgsubr
        </CharString>
        <CharString name="Egrave">
          -63 callgsubr
          256 65 -85 callsubr
        </CharString>
        <CharString name="Eth">
          138 0 31 305 32 301 31 hstem
          134 34 531 35 vstem
          134 -50 callgsubr
          -332 -75 -32 75 hlineto
          34 -305 rmoveto
          305 244 32 -244 301 -45 callsubr
        </CharString>
        <CharString name="F">
          -32 21 -21 328 31 310 31 hstem
          104 -10 callgsubr
          328 410 31 -410 310 454 31 -488 hlineto
          endchar
        </CharString>
        <CharString name="G">
          112 -12 30 305 33 325 2 callgsubr
          553 33 vstem
          421 -12 rmoveto
          113 95 48 59 65 hvcurveto
          261 -282 -33 249 -215 vlineto
          -47 -56 -85 -43 -98 hhcurveto
          -197 -117 150 181 -87 callgsubr
          172 123 158 186 103 64 -35 -51 61 vhcurveto
          22 26 rlineto
          58 -70 -68 33 -110 hhcurveto
          -211 -135 -174 -188 -70 callsubr
          -196 128 -164 220 vhcurveto
          endchar
        </CharString>
        <CharString name="H">
          86 21 -21 337 31 332 -20 hstem
          104 34 479 -10 callgsubr
          337 479 -337 34 700 -34 -332 -479 332 -34 hlineto
          endchar
        </CharString>
        <CharString name="I">
          -413 21 -21 700 -62 callgsubr
          endchar
        </CharString>
        <CharString name="Iacute">
          -43 callsubr
          1 65 -91 callgsubr
        </CharString>
        <CharString name="Icircumflex">
          -27 callgsubr
          207 -62 callgsubr
          -98 65 -96 callsubr
        </CharString>
        <CharString name="Idieresis">
          -27 callgsubr
          96 64 hstem
          29 50 32 34 32 50 cntrmask 00011100
          -47 callgsubr
          66 76 -95 callgsubr
        </CharString>
        <CharString name="Igrave">
          -43 callsubr
          9 65 -85 callsubr
        </CharString>
        <CharString name="J">
          -129 -20 callgsubr
          hstem
          412 34 vstem
          238 -11 rmoveto
          56 49 19 37 38 hvcurveto
          40 41 25 62 88 vvcurveto
          464 -34 -468 vlineto
          -143 -76 -69 -96 -82 -60 44 78 -36 vhcurveto
          -29 -16 rlineto
          -84 38 72 -53 95 hhcurveto
          endchar
        </CharString>
        <CharString name="K">
          40 -47 callsubr
          104 -10 callgsubr
          191 hlineto
          187 185 297 -376 rlineto
          44 hlineto
          -317 399 305 301 rlineto
          -47 hlineto
          -469 -468 rlineto
          468 -34 vlineto
          endchar
        </CharString>
        <CharString name="L">
          -71 0 31 669 -20 hstem
          104 34 -18 callgsubr
          456 31 -422 669 -34 hlineto
          endchar
        </CharString>
        <CharString name="Lslash">
          -43 0 31 669 -20 hstem
          132 33 vstem
          132 hmoveto
          456 31 -423 306 hlineto
          235 77 rlineto
          31 vlineto
          -235 -76 rlineto
          331 -33 -342 vlineto
          -87 -28 rlineto
          -32 vlineto
          87 29 rlineto
          endchar
        </CharString>
        <CharString name="M">
          194 -47 callsubr
          104 33 588 34 -18 callgsubr
          33 641 hlineto
          293 -420 rlineto
          2 hlineto
          293 420 rlineto
          -641 34 700 -32 vlineto
          -295 -426 -296 426 rlineto
          -32 hlineto
          endchar
        </CharString>
        <CharString name="N">
          115 -47 callsubr
          104 33 510 33 vstem
          -45 callgsubr
          endchar
        </CharString>
        <CharString name="NUL">
          -669 endchar
        </CharString>
        <CharString name="Ntilde">
          115 -64 callgsubr
          92 -38 callgsubr
          104 33 510 33 hintmask 11110110
          -45 callgsubr
          169 65 -85 callgsubr
        </CharString>
        <CharString name="O">
          -51 callgsubr
          -104 callgsubr
          endchar
        </CharString>
        <CharString name="OE">
          491 -48 callsubr
          hstem
          73 35 506 34 vstem
          445 hmoveto
          652 31 -449 -6 callgsubr
          444 31 -647 hlineto
          -220 -152 -152 -197 -70 callsubr
          -197 152 -152 220 vhcurveto
          1 31 rmoveto
          -203 -135 142 177 hvcurveto
          -29 callgsubr
          135 140 201 vhcurveto
          170 -638 hlineto
          endchar
        </CharString>
        <CharString name="Oacute">
          -93 callsubr
          -12 746 -91 callgsubr
        </CharString>
        <CharString name="Ocircumflex">
          -51 callgsubr
          175 -20 -104 callgsubr
          -116 746 -96 callsubr
        </CharString>
        <CharString name="Odieresis">
          -51 callgsubr
          64 64 hstem
          73 35 216 -10 callsubr
          215 -107 callsubr
          48 757 -95 callgsubr
        </CharString>
        <CharString name="Ograve">
          -93 callsubr
          -15 746 -85 callsubr
        </CharString>
        <CharString name="Omega">
          11 -56 callsubr
          hstem
          126 32 308 32 vstem
          -91 callsubr
          endchar
        </CharString>
        <CharString name="Oslash">
          176 -12 31 -3 -21 686 31 -7 -20 hstemhm
          73 35 629 35 hintmask 10011100
          422 -12 rmoveto
          212 138 -35 callgsubr
          1 1 0 1 -1 hhcurveto
          95 -34 90 -61 67 vhcurveto
          96 102 rlineto
          -40 hlineto
          -76 -82 rlineto
          hintmask 01101100
          55 -60 -79 34 -95 hhcurveto
          -71 callsubr
          -70 callsubr
          -95 34 -90 61 -67 vhcurveto
          -96 -102 rlineto
          40 hlineto
          76 82 rlineto
          hintmask 10101100
          -55 60 80 -34 94 hhcurveto
          -231 134 rmoveto
          -53 60 -30 81 87 vvcurveto
          -80 callgsubr
          86 73 -31 -52 54 vhcurveto
          -211 -579 rmoveto
          -87 -73 31 52 -54 hvcurveto
          444 476 rlineto
          53 -60 30 -81 -87 -25 callgsubr
          -177 -127 -152 -186 vhcurveto
          endchar
        </CharString>
        <CharString name="Otilde">
          -51 callgsubr
          60 -38 callgsubr
          73 35 629 35 hintmask 11110110
          -107 callgsubr
          -120 746 -85 callgsubr
        </CharString>
        <CharString name="P">
          -1 21 -21 269 32 368 31 -9 callgsubr
          269 -1 callsubr
          140 -87 callgsubr
          133 -101 79 -164 vhcurveto
          -250 hlineto
          34 -399 rmoveto
          368 213 vlineto
          144 90 -67 -115 -70 callsubr
          -116 -93 -68 -145 vhcurveto
          endchar
        </CharString>
        <CharString name="Q">
          176 -12 31 -12 -21 695 31 hstemhm
          73 35 629 35 hintmask 01111000
          755 -14 rmoveto
          23 26 -100 86 rlineto
          60 67 34 90 94 vvcurveto
          -97 callsubr
          hintmask 10111000
          -67 callsubr
          94 79 34 53 60 vhcurveto
          hintmask 01111000
          hintmask 10111000
          -231 -56 -102 callsubr
          -86 -30 -82 -54 -60 vhcurveto
          -147 130 -23 -26 147 -127 rlineto
          -48 -53 -71 -30 -82 hhcurveto
          endchar
        </CharString>
        <CharString name="R">
          55 21 -21 299 31 339 31 hstem
          104 34 472 -10 callgsubr
          299 245 hlineto
          3 hlineto
          228 -299 rlineto
          43 hlineto
          -233 303 rlineto
          129 11 91 69 118 -42 callsubr
          52 -19 45 -32 33 vhcurveto
          42 -43 -68 25 -89 hhcurveto
          -289 hlineto
          34 -370 rmoveto
          339 253 vlineto
          138 81 -63 -105 -70 callsubr
          -99 -82 -70 -144 vhcurveto
          endchar
        </CharString>
        <CharString name="S">
          -28 -10 31 658 31 -92 callgsubr
          endchar
        </CharString>
        <CharString name="Scaron">
          -28 -10 31 658 31 177 -20 -92 callgsubr
          -22 775 -79 callgsubr
        </CharString>
        <CharString name="T">
          -61 21 -21 669 31 hstem
          287 34 vstem
          287 hmoveto
          34 669 250 31 -533 -31 249 hlineto
          endchar
        </CharString>
        <CharString name="Thorn">
          1 21 -21 137 31 369 31 132 -20 -9 callgsubr
          137 -1 callsubr
          141 -87 callgsubr
          132 -101 79 -164 vhcurveto
          -216 132 -34 hlineto
          34 -532 rmoveto
          369 213 vlineto
          144 90 -66 -116 -70 callsubr
          -116 -93 -69 -145 vhcurveto
          endchar
        </CharString>
        <CharString name="U">
          86 -11 31 680 -96 callgsubr
          endchar
        </CharString>
        <CharString name="Uacute">
          -78 callsubr
          -24 774 -91 callgsubr
        </CharString>
        <CharString name="Ucircumflex">
          -21 callsubr
          205 -96 callgsubr
          -115 774 -96 callsubr
        </CharString>
        <CharString name="Udieresis">
          -21 callsubr
          88 64 hstem
          93 34 152 -10 callsubr
          151 -100 callgsubr
          49 779 -95 callgsubr
        </CharString>
        <CharString name="Ugrave">
          -78 callsubr
          -2 774 -85 callsubr
        </CharString>
        <CharString name="V">
          67 16 -21 705 -20 hstem
          354 -5 rmoveto
          28 hlineto
          314 705 rlineto
          -35 hlineto
          -292 -662 -292 662 rlineto
          -37 hlineto
          endchar
        </CharString>
        <CharString name="W">
          382 16 -21 705 -20 22 -20 hstemhm
          hintmask 11000000
          288 -5 rmoveto
          28 hlineto
          209 643 210 -643 rlineto
          28 hlineto
          242 705 rlineto
          -35 hlineto
          -220 -652 rlineto
          hintmask 10100000
          -211 654 rlineto
          -26 hlineto
          -210 -653 rlineto
          hintmask 11000000
          -220 651 rlineto
          -37 hlineto
          endchar
        </CharString>
        <CharString name="X">
          23 -47 callsubr
          43 hmoveto
          40 hlineto
          263 334 263 -334 rlineto
          40 hlineto
          -282 357 272 343 rlineto
          -40 hlineto
          -253 -321 -253 321 rlineto
          -40 hlineto
          273 -344 rlineto
          endchar
        </CharString>
        <CharString name="Y">
          12 -47 callsubr
          324 34 -77 callgsubr
          endchar
        </CharString>
        <CharString name="Yacute">
          12 -64 callgsubr
          211 -20 hstem
          324 34 -77 callgsubr
          7 476 -91 callgsubr
        </CharString>
        <CharString name="Ydieresis">
          12 -64 callgsubr
          88 64 hstem
          241 50 33 34 31 50 -77 callgsubr
          65 481 -95 callgsubr
        </CharString>
        <CharString name="Z">
          13 0 31 638 31 -51 callsubr
          endchar
        </CharString>
        <CharString name="Zcaron">
          13 0 31 638 31 187 -20 -51 callsubr
          264 746 -79 callgsubr
        </CharString>
        <CharString name="a">
          -75 callsubr
          -21 callgsubr
          hintmask 10111100
          -74 callgsubr
          hintmask 01111100
          -105 callgsubr
          hintmask 10111100
          -101 callgsubr
          endchar
        </CharString>
        <CharString name="aacute">
          -95 callsubr
          15 577 -91 callgsubr
        </CharString>
        <CharString name="acircumflex">
          -75 callsubr
          205 -102 callgsubr
          -70 577 -96 callsubr
        </CharString>
        <CharString name="acute">
          -15 callsubr
          202 595 -91 callgsubr
        </CharString>
        <CharString name="adieresis">
          -75 callsubr
          94 64 3 callsubr
          105 -10 callsubr
          66 32 hintmask 1011111110000000
          -74 callgsubr
          hintmask 0111111110000000
          -105 callgsubr
          hintmask 1011111110000000
          -101 callgsubr
          94 588 -95 callgsubr
        </CharString>
        <CharString name="ae">
          301 -12 30 222 29 7 30 176 34 -4 -20 3 callsubr
          364 30 403 35 hintmask 11110111
          247 -12 rmoveto
          110 83 61 59 42 hvcurveto
          -75 44 79 -45 88 hhcurveto
          98 65 43 55 44 hvcurveto
          -23 20 rlineto
          -50 -40 -58 -38 -85 hhcurveto
          -112 -97 86 136 -6 hvcurveto
          437 hlineto
          1 4 0 2 5 vvcurveto
          135 -80 130 -152 -98 -79 -58 -87 -37 vhcurveto
          hintmask 11101111
          95 -19 -72 46 -107 hhcurveto
          -66 -53 -17 -27 -56 hvcurveto
          12 -28 rlineto
          hintmask 11110111
          25 50 50 17 61 hhcurveto
          110 67 -55 -113 1 hvcurveto
          -1 -9 -1 -17 -1 -9 rrcurveto
          16 -49 -58 11 -67 hhcurveto
          -126 -95 -57 -105 -70 callsubr
          -102 91 -52 105 vhcurveto
          232 -55 callsubr
          115 hhcurveto
          126 66 -107 -110 6 hvcurveto
          -633 -251 rmoveto
          -93 -71 43 83 -87 callgsubr
          83 77 47 109 71 55 -11 -16 48 vhcurveto
          1 -41 8 -38 14 -33 rrcurveto
          -64 -41 -81 -55 -97 hhcurveto
          endchar
        </CharString>
        <CharString name="agrave">
          -95 callsubr
          29 577 -85 callsubr
        </CharString>
        <CharString name="ampersand">
          9 -10 30 -11 -21 695 29 3 callsubr
          66 34 256 33 hintmask 01111100
          618 -12 rmoveto
          25 22 -125 132 40 54 34 67 30 76 rlinecurve
          -30 11 -29 -74 -30 -60 -36 -51 rlinecurve
          -203 215 rlineto
          127 52 53 54 79 -42 callsubr
          76 -64 69 -93 -103 -63 -74 -77 -84 callgsubr
          -53 25 -49 63 -68 vhcurveto
          -104 -44 -84 -58 -109 -25 callgsubr
          hintmask 10111100
          -104 87 -82 123 94 78 47 79 65 vhcurveto
          hintmask 01111100
          -225 285 rmoveto
          -67 70 -21 44 46 -42 callsubr
          61 50 59 81 75 50 -56 -61 -84 callgsubr
          -67 -46 -47 -122 -49 vhcurveto
          hintmask 10111100
          -12 -381 rmoveto
          -105 -71 72 85 -87 callgsubr
          94 75 53 100 41 vhcurveto
          217 -229 rlineto
          -72 -59 -73 -46 -84 hhcurveto
          endchar
        </CharString>
        <CharString name="apple">
          298 -105 35 -13 -21 29 121 -46 46 -46 78 3 46 6 37 5 48 7 41 6 31 -31 83 -83 101 -37 65 34 35 6 37 -6 -20 29 24 -4 34 3 40 6 38 -38 71 2 53 hstemhm
          101 41 -41 181 -99 71 15 46 -32 32 -20 56 -6 32 -9 32 0 27 17 22 -22 104 -88 31 17 23 -23 104 -68 32 13 47 -8 28 -8 32 3 44 -31 172 -139 139 -88 88 -74 74 vstemhm
          827 41 hintmask 010101111100111010110110110010110010110110100000
          868 hmoveto
          750 -767 -750 vlineto
          758 -104 rmoveto
          -76 callsubr
          -6 34 rlineto
          -1 hlineto
          -13 -26 -13 26 rlineto
          -1 hlineto
          -69 callsubr
          -6 -34 rlineto
          6 hlineto
          3 20 rlineto
          -76 callsubr
          10 -21 rlineto
          2 hlineto
          10 21 rlineto
          -69 callsubr
          3 -20 rlineto
          -47 17 rmoveto
          -76 callsubr
          -28 callsubr
          -48 -9 rmoveto
          -2 -3 -4 -2 -3 hhcurveto
          -7 -6 4 9 hvcurveto
          -69 callsubr
          7 6 5 6 3 4 -1 -2 2 vhcurveto
          2 5 rlineto
          -76 callsubr
          2 -3 -4 1 -4 hhcurveto
          -10 -8 -8 -10 -10 7 -7 11 4 4 1 2 2 hvcurveto
          -55 31 rmoveto
          -7 hlineto
          -9 -14 -11 15 -6 -1 14 -19 rlineto
          hintmask 011001111100111010110110110010110001001010100000
          -14 6 14 vlineto
          -33 -14 rmoveto
          33 -6 -13 -16 13 -6 -33 6 15 16 -15 vlineto
          -38 22 -41 callgsubr
          hintmask 011001111100111010110110110010110001001010100000
          10 7 4 8 hvcurveto
          -69 callsubr
          -36 -22 rmoveto
          -76 callsubr
          -16 34 rlineto
          -2 hlineto
          hintmask 011001111100111010110110110010100111001010100000
          -15 -34 rlineto
          6 hlineto
          3 8 rlineto
          14 hlineto
          4 -8 rlineto
          -36 hmoveto
          -10 13 rlineto
          4 2 3 3 5 vvcurveto
          6 -5 6 -18 -2 vhcurveto
          -33 6 11 5 vlineto
          8 -11 rlineto
          -36 3 rmoveto
          15 -15 -5 9 -7 vlineto
          -1 -2 -2 -1 -2 hhcurveto
          -69 callsubr
          -7 -6 5 7 8 5 5 7 4 5 -2 -2 2 hvcurveto
          hintmask 100101111100111010110110110001000110110110100000
          2 5 rlineto
          2 -3 -5 2 -4 hhcurveto
          -11 -8 -8 -10 -10 8 -7 10 5 5 2 2 3 hvcurveto
          -44 14 rmoveto
          -28 callsubr
          -47 5 -41 callgsubr
          -76 callsubr
          10 7 4 8 hvcurveto
          -36 11 rmoveto
          -7 hlineto
          -9 -14 -11 15 -6 -1 14 -19 rlineto
          -69 callsubr
          -14 vlineto
          hintmask 011001111100111010110110100101010010110110100000
          6 14 hlineto
          -28 19 rmoveto
          -30 -5 12 -28 6 28 12 hlineto
          -56 5 0 callsubr
          rlineto
          hintmask 100101111100111010101110110010110010110110100000
          -68 callsubr
          -44 34 0 callsubr
          -68 callsubr
          -44 34 0 callsubr
          -68 callsubr
          573 4 rmoveto
          -29 callsubr
          -432 hmoveto
          -29 callsubr
          275 787 rmoveto
          -2 hlineto
          0 -3 9 -7 -2 -1 -1 -2 vhcurveto
          -23 vlineto
          -6 5 1 0 vhcurveto
          -76 callsubr
          -22 callgsubr
          -1 6 vvcurveto
          23 vlineto
          hintmask 100101111100111010101110110010110010110110100000
          2 0 1 -3 -6 -4 -9 0 vhcurveto
          -2 hlineto
          0 1 8 4 vvcurveto
          -1 3 5 0 10 hhcurveto
          9 6 0 1 2 hvcurveto
          1 -4 0 -8 0 vvcurveto
          hintmask 100101111100111010110110110010100110110110100000
          -55 -24 rmoveto
          -18 2 hlineto
          0 5 -1 6 vvcurveto
          10 -17 -10 vlineto
          -5 5 0 0 vhcurveto
          -22 callgsubr
          0 5 vvcurveto
          21 vlineto
          hintmask 100101111100111010101110110010100110110110100000
          6 -5 -1 0 vhcurveto
          2 17 -1 vlineto
          -1 vlineto
          0 -5 1 -6 vvcurveto
          -9 17 9 vlineto
          6 -5 -1 0 vhcurveto
          1 vlineto
          1 18 -5 callsubr
          -6 1 -6 vvcurveto
          -21 vlineto
          -6 6 1 0 vhcurveto
          -76 callsubr
          -65 -65 callsubr
          -33 callsubr
          hlineto
          hintmask 100101111100111010101110110010110010110110000100
          -2 vlineto
          -16 callsubr
          388 -46 -27 callsubr
          hintmask 100101111100111001110110110010101000010101000000
          -131 -84 -32 callgsubr
          -107 -3 rmoveto
          -54 callgsubr
          -76 callsubr
          -59 callgsubr
          hintmask 100101111100111001110110100101010010110110100000
          -66 callsubr
          -294 hmoveto
          -54 callgsubr
          hintmask 100101111100111010110101001010110010110110100000
          -59 callgsubr
          hintmask 100101111100111001110110100101000110110110001000
          -66 callsubr
          525 -15 rmoveto
          -62 callsubr
          -3 16 rlineto
          -24 hlineto
          3 -16 rlineto
          2 -9 8 1 0 vvcurveto
          -62 callsubr
          -7 35 rlineto
          -2 9 -8 -1 1 callsubr
          29 hlineto
          -60 callgsubr
          3 -15 rlineto
          24 hlineto
          -3 15 rlineto
          -2 9 -7 -1 1 callsubr
          28 hlineto
          -81 callgsubr
          -322 -3 rmoveto
          -50 callsubr
          -75 callgsubr
          -295 hmoveto
          -62 callsubr
          hintmask 100101111100111010110110110001010010110110100000
          -78 callgsubr
          198 -1 rmoveto
          -2 -2 -1 -2 -5 -5 3 4 -2 vhcurveto
          hintmask 100101111100110110110110110010110010110110100000
          -11 4 -13 -18 hhcurveto
          -7 -8 6 6 3 1 4 4 3 2 -2 -3 hvcurveto
          -2 -2 0 -3 vvcurveto
          -2 2 -2 3 vhcurveto
          7 2 13 14 hhcurveto
          hintmask 100101111100111001110110110010110010110110100000
          15 -17 9 30 -13 hhcurveto
          -4 -1 -3 -3 -4 0 -2 -4 -3 -2 2 3 4 6 6 7 31 -12 -41 -7 10 hvcurveto
          hintmask 100101111001011010110110110001010010110110000100
          9 -1 4 -5 -3 vvcurveto
          427 -46 -27 callsubr
          -103 vmoveto
          -36 hlineto
          hintmask 100101111100111010110110110010110010110110010000
          28 -11 -65 vlineto
          hintmask 100101111100111010110110110010110010110110001000
          14 -33 -81 33 14 65 -11 hlineto
          hintmask 100101111001011010110110110010110010110110000100
          -28 -36 62 147 vlineto
          hintmask 100101111100111010110110110010110001000110100000
          -179 -34 rmoveto
          -14 hlineto
          -37 -45 rlineto
          -20 15 -33 vlineto
          -76 callsubr
          -81 33 14 hlineto
          hintmask 100101111010011010110110110010110010110110100000
          19 vlineto
          -76 callsubr
          -37 46 rlineto
          -12 34 62 -34 hlineto
          hintmask 100101111100111010110110110010101000010110100000
          -10 hlineto
          15 -23 15 23 rlineto
          -11 34 81 hlineto
          -190 -132 rmoveto
          -81 33 15 hlineto
          hintmask 100101111010011010110110101010110010110110100000
          19 -30 vlineto
          -29 -18 17 23 22 18 18 29 hvcurveto
          96 hlineto
          -3 callgsubr
          -14 -65 14 vlineto
          -175 -33 rmoveto
          -141 61 41 -28 33 21 -24 24 24 20 -33 hlineto
          hintmask 100101111001011010110110101010110010110110100000
          -28 -41 62 141 vlineto
          -3 callgsubr
          vlineto
          -76 callsubr
          -14 -65 hlineto
          hintmask 100101111100111010110110101010110010110110000100
          14 hlineto
          544 -70 -27 callsubr
          -99 -85 -32 callgsubr
          -525 25 rmoveto
          -2 -2 rlineto
          3 -3 -3 4 -6 hhcurveto
          -6 -3 -5 -8 -5 2 -10 3 -10 hvcurveto
          3 -11 7 2 0 vvcurveto
          1 -4 rlineto
          -28 hlineto
          -1 4 rlineto
          0 10 -2 -4 17 vhcurveto
          16 -4 -7 17 -13 hhcurveto
          -5 -3 -2 -4 hvcurveto
          -3 1 rlineto
          8 6 4 6 11 6 -10 -13 4 vhcurveto
          16 -1 6 7 9 hhcurveto
          10 4 -6 -7 4 hvcurveto
          620 -46 rmoveto
          hintmask 100101111100111010110110110010110010110110001000
          -50 callsubr
          hintmask 100101111100111010110110100101000110110110010000
          -75 callgsubr
          -201 51 rmoveto
          0 -11 2 3 -11 vhcurveto
          5 -22 rlineto
          -10 2 2 -14 -23 hhcurveto
          -18 -8 16 11 -2 hvcurveto
          -4 19 rlineto
          -2 10 -9 -1 1 callsubr
          24 -3 hlineto
          0 -9 2 2 -11 vhcurveto
          4 -19 rlineto
          -12 3 6 -10 11 hhcurveto
          14 0 7 13 -3 hvcurveto
          -5 21 rlineto
          -2 10 -8 -1 1 callsubr
          29 hlineto
          -98 -54 rmoveto
          -17 callgsubr
          -21 hlineto
          -18 callsubr
          0 8 -1 -2 11 vhcurveto
          -6 30 -30 -44 -3 1 -8 45 rlineto
          -2 9 -7 0 1 callsubr
          21 hlineto
          -17 callgsubr
          0 -9 0 2 -9 vhcurveto
          5 -30 29 42 rlineto
          14 hlineto
          -17 callgsubr
          0 -10 1 2 -10 vhcurveto
          7 -32 rlineto
          3 -10 6 0 0 vvcurveto
          -108 -3 rmoveto
          0 -21 0 -11 -17 -18 14 21 15 13 7 12 vhcurveto
          7 14 0 9 hhcurveto
          1 -3 -8 -1 -2 -3 2 -6 rlinecurve
          8 -31 rlineto
          3 -11 7 2 0 vvcurveto
          -107 -1 rmoveto
          -62 callsubr
          -78 callgsubr
          hintmask 011001111100111010110110110010110010110110000100
          521 -47 -27 callsubr
          -133 -87 rmoveto
          -14 2 hlineto
          0 5 1 4 vvcurveto
          20 vlineto
          -25 -28 rlineto
          -3 28 hlineto
          5 -6 1 0 vhcurveto
          2 15 -5 callsubr
          -6 -1 -5 vvcurveto
          -18 vlineto
          24 26 rlineto
          10 -2 hlineto
          0 -6 -3 -3 vvcurveto
          -20 vlineto
          -4 6 -1 0 vhcurveto
          -61 -65 callsubr
          hintmask 100011111100111010110110110010110010101010100000
          -33 callsubr
          -2 hlineto
          -16 callsubr
          -50 33 rmoveto
          -5 callsubr
          -4 0 -3 -6 vhcurveto
          -69 callsubr
          -12 -27 rlineto
          -1 hlineto
          -9 16 -8 -16 rlineto
          -1 -1 1 0 vhcurveto
          -1 hlineto
          -13 27 rlineto
          -2 5 -4 1 0 vvcurveto
          2 13 -5 callsubr
          -4 -1 2 -5 vhcurveto
          8 -18 7 13 rlineto
          hintmask 011001111100111010110110110010101000010110100000
          -3 5 rlineto
          -4 6 -3 0 0 vvcurveto
          -1 2 rlineto
          26 -2 hlineto
          0 -4 -2 -2 -4 vhcurveto
          -4 -8 5 -10 9 19 rlineto
          2 4 -4 1 0 -42 callsubr
          -88 -2 rmoveto
          0 -4 0 -3 -5 vhcurveto
          -8 -12 rlineto
          -8 vlineto
          -6 5 0 0 vhcurveto
          -22 callgsubr
          0 6 vvcurveto
          8 vlineto
          -8 12 rlineto
          -3 5 -5 0 0 vvcurveto
          2 15 -5 callsubr
          -6 0 3 -5 vhcurveto
          hintmask 100101111100111010110110110010100110110110100000
          6 -9 rlineto
          -69 callsubr
          6 9 rlineto
          3 5 -4 0 0 vvcurveto
          2 15 vlineto
          -55 -17 rmoveto
          -10 -7 -9 -13 -13 -7 9 10 10 7 8 13 13 7 -8 -10 vhcurveto
          -61 -18 rmoveto
          -17 2 hlineto
          0 5 0 5 vvcurveto
          9 vlineto
          -4 0 0 -4 -3 hvcurveto
          -7 -12 rlineto
          -11 2 hlineto
          0 4 0 4 5 vhcurveto
          7 10 rlineto
          -5 2 -4 3 4 vvcurveto
          5 5 4 8 8 10 0 0 vhcurveto
          -5 callsubr
          -5 0 -6 vvcurveto
          -20 vlineto
          -5 5 0 0 vhcurveto
          -55 -2 rmoveto
          -18 2 hlineto
          0 6 0 6 vvcurveto
          9 vlineto
          -2 -1 -1 -1 -1 hvcurveto
          -8 -8 rlineto
          -4 -5 6 0 0 vvcurveto
          -22 callgsubr
          3 2 2 vhcurveto
          13 13 -10 9 rlineto
          -3 3 -5 1 0 vvcurveto
          2 14 -5 callsubr
          -4 -1 3 -3 vhcurveto
          8 -8 rlineto
          -1 1 1 -1 2 hhcurveto
          9 vlineto
          5 -6 0 0 vhcurveto
          2 18 -5 callsubr
          -6 0 -5 vvcurveto
          -20 vlineto
          -5 6 -1 0 vhcurveto
          297 -131 rmoveto
          -5 -5 -1 -8 callgsubr
          -81 1 rmoveto
          -3 -2 -4 -9 1 vhcurveto
          12 vlineto
          6 1 5 -2 -5 vvcurveto
          -131 -1 rmoveto
          -4 -5 -2 -8 callgsubr
          170 -9 rmoveto
          -10 hlineto
          5 12 rlineto
          241 -8 rmoveto
          -28 callgsubr
          -359 hmoveto
          -28 callgsubr
          -265 636 -35 callsubr
          395 5 rmoveto
          -37 callsubr
          -294 hmoveto
          -37 callsubr
          412 -18 -34 callsubr
          -292 -151 rmoveto
          22 -11 vlineto
          hintmask 100011111100111010110110110001010010110110100000
          -9 -4 -5 -6 -6 4 -5 9 hvcurveto
          -101 -184 -35 callsubr
          441 -13 -34 callsubr
          -323 -5 rmoveto
          -9 35 -2 6 0 0 -4 1 rlinecurve
          -6 hlineto
          -9 -5 -6 -11 -16 11 -16 15 hvcurveto
          5 hlineto
          3 1 1 6 hvcurveto
          160 -103 rmoveto
          -2 -2 -2 -7 4 hvcurveto
          6 3 1 3 -4 hhcurveto
          -201 -15 rmoveto
          10 vlineto
          3 -1 1 -3 -5 -2 -3 -3 -6 4 -2 4 vhcurveto
          2 0 0 1 hhcurveto
          65 hmoveto
          9 -3 7 -9 -8 -4 -7 -9 -9 4 -8 8 9 3 8 9 vhcurveto
          endchar
        </CharString>
        <CharString name="approxequal">
          242 -23 callgsubr
          308 32 281 32 hintmask 11011110
          774 -41 callsubr
          hintmask 11101110
          -98 callsubr
          653 -475 rmoveto
          -12 callgsubr
          hlineto
          endchar
        </CharString>
        <CharString name="aring">
          -75 callsubr
          82 22 142 22 3 callsubr
          105 25 144 25 70 32 hintmask 1011111111000000
          -74 callgsubr
          hintmask 0111111111000000
          -105 callgsubr
          hintmask 1011111111000000
          -101 callgsubr
          43 576 -73 callsubr
        </CharString>
        <CharString name="asciicircum">
          515 -21 209 -20 hstem
          81 494 rmoveto
          30 hlineto
          139 176 138 -176 rlineto
          31 hlineto
          -157 209 rlineto
          -24 hlineto
          endchar
        </CharString>
        <CharString name="asciitilde">
          -221 255 33 -18 -21 57 33 7 -20 hstemhm
          hintmask 01100000
          105 249 rmoveto
          44 15 15 13 24 hhcurveto
          hintmask 10010000
          34 55 -51 40 hhcurveto
          35 27 22 63 15 hvcurveto
          -22 6 rlineto
          -45 -15 -15 -13 -24 hhcurveto
          hintmask 01100000
          -34 -55 51 -40 hhcurveto
          -35 -27 -21 -64 -15 hvcurveto
          endchar
        </CharString>
        <CharString name="asterisk">
          -239 427 -21 296 -20 hstem
          203 23 vstem
          200 406 rmoveto
          30 hlineto
          -7 135 113 -75 16 27 -123 61 123 61 -16 27 -113 -75 7 135 rlineto
          -30 hlineto
          7 -135 -113 75 -16 -27 123 -61 -123 -61 16 -27 113 75 rlineto
          endchar
        </CharString>
        <CharString name="at">
          292 -163 24 217 25 354 31 200 24 hstem
          60 25 184 34 573 26 vstem
          493 -163 rmoveto
          99 81 25 47 72 hvcurveto
          -12 19 rlineto
          -44 -71 -75 -23 -93 hhcurveto
          -233 -176 170 236 225 168 196 231 225 167 -175 -192 -154 -78 -64 -66 -61 -28 39 60 15 2 22 5 26 hvcurveto
          36 199 -31 5 -17 -90 rlineto
          62 -17 -56 47 -78 hhcurveto
          -110 -108 -103 -137 -104 74 -66 96 76 60 47 63 37 hvcurveto
          -59 6 37 -51 75 hhcurveto
          76 96 71 172 209 -180 182 -237 -243 -182 -208 -237 -249 188 -181 245 hvcurveto
          -51 272 rmoveto
          -81 -58 52 89 118 88 89 96 79 59 -63 -82 -103 -84 -100 -99 hvcurveto
          endchar
        </CharString>
        <CharString name="atilde">
          -75 callsubr
          90 32 19 33 6 -15 callgsubr
          hintmask 1011110110000000
          -74 callgsubr
          hintmask 0111110110000000
          -105 callgsubr
          hintmask 1011110110000000
          -101 callgsubr
          -74 577 -84 callsubr
          hintmask 1011101110000000
          -67 callgsubr
          hintmask 1011110110000000
          -79 callsubr
        </CharString>
        <CharString name="b">
          -17 callsubr
          1 callgsubr
          hintmask 10111100
          348 -12 rmoveto
          -72 callsubr
          365 -32 vlineto
          hintmask 01111100
          -730 32 137 vlineto
          hintmask 10111100
          -83 34 78 -66 111 hhcurveto
          -3 31 -58 callsubr
        </CharString>
        <CharString name="backslash">
          -186 -8 callsubr
          467 -128 rmoveto
          34 hlineto
          -471 926 rlineto
          -34 hlineto
          endchar
        </CharString>
        <CharString name="bar">
          -400 -8 callsubr
          120 29 vstem
          120 -128 rmoveto
          29 926 -29 hlineto
          endchar
        </CharString>
        <CharString name="braceleft">
          -16 callgsubr
          195 33 vstem
          389 -141 rmoveto
          5 24 rlineto
          -155 34 -11 52 97 17 0 43 18 vvcurveto
          81 -35 48 -73 14 vhcurveto
          71 12 37 50 81 18 0 43 17 vvcurveto
          97 11 52 155 34 vhcurveto
          -5 24 rlineto
          -177 -34 -17 -66 -105 -14 0 -49 -16 vvcurveto
          -73 -30 -57 -93 vhcurveto
          -22 -28 22 hlineto
          93 30 -57 -73 hvcurveto
          -16 0 -49 -14 vvcurveto
          -105 17 -66 177 -34 vhcurveto
          endchar
        </CharString>
        <CharString name="braceright">
          -16 callgsubr
          228 33 vstem
          67 -141 rmoveto
          177 34 17 66 105 14 0 49 16 vvcurveto
          73 30 57 93 vhcurveto
          22 28 -22 hlineto
          -93 -30 57 73 hvcurveto
          16 0 49 14 vvcurveto
          105 -17 66 -177 34 vhcurveto
          -5 -24 rlineto
          155 -34 11 -52 -97 -17 0 -43 -18 vvcurveto
          -81 35 -48 73 -14 vhcurveto
          -71 -12 -37 -50 -81 -18 0 -43 -17 vvcurveto
          -97 -11 -52 -155 -34 vhcurveto
          endchar
        </CharString>
        <CharString name="bracketleft">
          -6 callsubr
          98 32 vstem
          98 -130 rmoveto
          267 25 -235 780 235 25 -267 hlineto
          endchar
        </CharString>
        <CharString name="bracketright">
          -6 callsubr
          288 32 vstem
          53 -130 rmoveto
          267 830 -267 -25 235 -780 -235 hlineto
          endchar
        </CharString>
        <CharString name="breve">
          594 31 92 -20 hstem
          250 594 rmoveto
          75 47 50 73 6 hvcurveto
          -25 hlineto
          -49 -10 -32 -43 -61 hhcurveto
          -60 -33 43 49 -10 hvcurveto
          -25 hlineto
          -73 6 47 -50 75 hhcurveto
          endchar
        </CharString>
        <CharString name="bullet">
          -223 240 225 hstem
          110 227 vstem
          224 240 rmoveto
          62 51 50 62 -87 callgsubr
          61 -53 50 -60 -61 -53 -50 -61 -84 callgsubr
          -62 52 -50 62 vhcurveto
          endchar
        </CharString>
        <CharString name="c">
          -104 -12 30 468 30 hstem
          58 34 vstem
          315 -12 rmoveto
          94 63 43 57 49 hvcurveto
          -72 callgsubr
          -143 112 -120 145 vhcurveto
          endchar
        </CharString>
        <CharString name="caron">
          616 -21 122 -20 hstem
          238 595 -79 callgsubr
        </CharString>
        <CharString name="ccedilla">
          -104 -123 -21 133 29 468 30 hstem
          58 34 vstem
          256 -144 rmoveto
          69 132 88 3 60 43 48 54 rlinecurve
          -72 callgsubr
          -137 103 -116 136 -9 vhcurveto
          -76 -116 rlineto
          endchar
        </CharString>
        <CharString name="cedilla">
          -123 -21 151 -20 hstem
          205 -144 rmoveto
          79 151 rlineto
          -26 hlineto
          -88 -134 rlineto
          endchar
        </CharString>
        <CharString name="cent">
          -100 15 -21 97 30 468 30 87 -20 hstem
          66 33 vstem
          225 -6 rmoveto
          31 hlineto
          20 101 rlineto
          -2 15 14 -2 15 hhcurveto
          93 64 41 59 51 hvcurveto
          -22 19 rlineto
          -51 -45 -60 -38 -79 hhcurveto
          -14 -14 1 2 -13 hvcurveto
          90 460 56 -12 41 -34 34 -35 rlinecurve
          23 23 -38 39 -45 35 -64 14 rlinecurve
          18 92 rlineto
          -32 hlineto
          -17 -88 rlineto
          1 -9 -7 0 -8 hhcurveto
          -144 -113 -122 -141 -70 callsubr
          -116 74 -103 106 -33 vhcurveto
          7 30 rmoveto
          -90 31 -64 90 102 -42 callsubr
          126 98 106 125 vhcurveto
          7 6 0 7 hhcurveto
          endchar
        </CharString>
        <CharString name="circumflex">
          616 -21 122 -20 hstem
          135 595 -96 callsubr
        </CharString>
        <CharString name="colon">
          -472 21 -25 callsubr
          -504 vmoveto
          48 65 -48 hlineto
          endchar
        </CharString>
        <CharString name="comma">
          -59 callsubr
        </CharString>
        <CharString name="copyright">
          161 -12 21 156 27 326 27 146 21 hstem
          53 23 163 30 485 -98 callgsubr
          6 156 rmoveto
          68 41 28 36 35 hvcurveto
          -20 19 rlineto
          -33 -32 -35 -23 -56 hhcurveto
          -87 -66 75 87 hvcurveto
          1 -1 0 1 1 hhcurveto
          88 64 74 88 56 37 -26 -28 28 vhcurveto
          21 21 rlineto
          33 -34 -39 27 -68 hhcurveto
          -105 -78 -87 -103 -70 callsubr
          -102 78 -86 104 vhcurveto
          endchar
        </CharString>
        <CharString name="currency">
          51 -12 30 236 31 139 32 226 30 hstem
          137 32 vstem
          426 -12 rmoveto
          111 70 65 85 53 hvcurveto
          -26 16 rlineto
          -78 -48 -62 -58 -97 hhcurveto
          -125 -94 96 140 -29 hvcurveto
          303 31 -309 hlineto
          -2 21 -2 21 22 -42 callsubr
          25 3 26 3 22 vhcurveto
          307 32 -301 hlineto
          130 32 89 96 116 hhcurveto
          104 59 -51 -78 50 hvcurveto
          27 18 rlineto
          82 -52 -70 59 -117 hhcurveto
          -133 -104 -108 -148 -34 hvcurveto
          -95 -32 90 hlineto
          -4 -23 -2 -26 -25 -25 callgsubr
          -21 1 -21 2 -21 vhcurveto
          -87 -31 92 hlineto
          -159 31 107 -107 143 hhcurveto
          endchar
        </CharString>
        <CharString name="d">
          -17 callsubr
          60 34 438 32 hintmask 10111100
          309 -12 rmoveto
          110 78 67 84 35 hvcurveto
          hintmask 01111100
          -139 32 730 -32 -363 vlineto
          -33 callgsubr
          hintmask 10111100
          -2 callgsubr
          vhcurveto
          3 31 -57 callgsubr
        </CharString>
        <CharString name="dagger">
          -272 259 -21 289 25 148 -20 hstem
          185 26 vstem
          182 238 rmoveto
          32 hlineto
          -5 293 -34 callgsubr
          -5 callgsubr
          rlineto
          endchar
        </CharString>
        <CharString name="daggerdbl">
          -264 21 -21 148 24 355 25 148 -20 hstemhm
          67 148 -26 26 -26 149 hintmask 11110100
          186 hmoveto
          33 hlineto
          -6 151 rlineto
          hintmask 11110010
          125 -6 rlineto
          31 vlineto
          -125 -7 5 181 -5 181 -34 callgsubr
          rlineto
          hintmask 11111000
          -5 callgsubr
          -5 -181 5 -181 -125 7 rlineto
          -31 vlineto
          125 6 rlineto
          endchar
        </CharString>
        <CharString name="degree">
          -231 420 29 229 28 hstem
          73 32 228 32 vstem
          219 420 rmoveto
          78 68 65 77 -87 callgsubr
          77 -68 65 -78 -78 -68 -65 -77 -84 callgsubr
          -77 68 -65 78 vhcurveto
          29 vmoveto
          -63 -51 52 61 -87 callgsubr
          61 51 53 63 63 51 -53 -61 -84 callgsubr
          -61 -51 -52 -63 vhcurveto
          endchar
        </CharString>
        <CharString name="dieresis">
          606 64 hstem
          151 -10 callsubr
          vstem
          299 606 -95 callgsubr
        </CharString>
        <CharString name="dollar">
          -43 0 31 637 31 hstem
          90 34 173 34 187 34 vstem
          300 -98 rmoveto
          31 98 hlineto
          134 87 77 105 -87 callgsubr
          100 -73 51 -149 32 vhcurveto
          303 vlineto
          72 -5 53 -27 54 -47 21 26 rcurveline
          -57 48 -61 29 -81 5 rrcurveto
          59 -31 -59 vlineto
          -125 -1 -85 -77 -97 -25 callgsubr
          -99 68 -49 143 -32 vhcurveto
          -312 vlineto
          -82 7 -72 37 -61 59 -22 -25 rcurveline
          66 -62 80 -38 90 -7 rrcurveto
          1 374 rmoveto
          -130 31 -47 40 78 -42 callsubr
          79 69 65 108 1 vhcurveto
          29 -642 rmoveto
          306 vlineto
          134 -32 54 -37 -84 -25 callgsubr
          -86 -71 -65 -117 vhcurveto
          endchar
        </CharString>
        <CharString name="dotaccent">
          627 -21 66 -20 hstem
          226 49 vstem
          226 606 rmoveto
          49 66 -49 hlineto
          endchar
        </CharString>
        <CharString name="dotlessi">
          -438 21 -21 504 -56 callgsubr
          endchar
        </CharString>
        <CharString name="e">
          -86 -55 callgsubr
          -104 callsubr
          endchar
        </CharString>
        <CharString name="eacute">
          -92 callsubr
          -233 326 -91 callgsubr
        </CharString>
        <CharString name="ecircumflex">
          -86 -55 callgsubr
          201 -20 -104 callsubr
          -314 326 -96 callsubr
        </CharString>
        <CharString name="edieresis">
          -86 -55 callgsubr
          90 64 hstem
          58 35 104 -10 callsubr
          100 -106 callsubr
          -150 337 -95 callgsubr
        </CharString>
        <CharString name="egrave">
          -92 callsubr
          -201 326 -85 callsubr
        </CharString>
        <CharString name="eight">
          -41 -10 31 324 30 304 31 hstemhm
          56 35 -8 34 393 35 -8 34 hintmask 11110010
          314 -10 rmoveto
          155 102 85 107 -87 callgsubr
          86 -74 67 -97 24 vhcurveto
          hintmask 11101100
          83 26 62 56 84 -42 callsubr
          105 -105 76 -126 -126 -105 -76 -105 -84 callgsubr
          -84 62 -56 83 -26 vhcurveto
          hintmask 11110100
          -97 -23 -75 -67 -87 -25 callgsubr
          -107 102 -85 156 vhcurveto
          385 vmoveto
          hintmask 11101100
          -107 -90 61 92 -87 callgsubr
          86 86 63 110 110 87 -64 -86 -84 callgsubr
          -92 -88 -60 -108 vhcurveto
          -354 vmoveto
          hintmask 11110010
          -138 -85 74 86 -87 callgsubr
          95 99 67 123 123 101 -68 -95 -84 callgsubr
          -86 -84 -73 -139 vhcurveto
          endchar
        </CharString>
        <CharString name="ellipsis">
          -107 0 64 hstem
          71 47 140 47 139 47 vstem
          444 hmoveto
          47 64 -47 hlineto
          -186 -64 rmoveto
          47 64 -47 hlineto
          -187 -64 rmoveto
          47 64 -47 hlineto
          endchar
        </CharString>
        <CharString name="emdash">
          227 -1 callgsubr
          756 32 -756 hlineto
          endchar
        </CharString>
        <CharString name="endash">
          -135 -1 callgsubr
          394 32 -394 hlineto
          endchar
        </CharString>
        <CharString name="equal">
          -53 221 32 199 32 hstem
          93 452 rmoveto
          430 32 -430 hlineto
          -263 vmoveto
          430 32 -430 hlineto
          endchar
        </CharString>
        <CharString name="eth">
          -54 -12 30 434 30 248 -20 26 -20 hstemhm
          57 34 431 34 hintmask 11011100
          308 -12 rmoveto
          147 101 114 145 -87 callgsubr
          74 -35 71 -33 50 vhcurveto
          -145 213 105 54 -18 25 -104 -55 rlineto
          hintmask 11101100
          -32 49 rlineto
          -41 hlineto
          44 -64 -142 -74 18 -24 141 74 151 -219 rlineto
          32 -38 -56 27 -71 hhcurveto
          -132 -111 -105 -139 -70 callsubr
          -135 109 -113 142 vhcurveto
          2 30 rmoveto
          -124 -95 101 116 -87 callgsubr
          119 90 96 122 122 97 -91 -117 -84 callgsubr
          -124 -89 -100 -123 vhcurveto
          endchar
        </CharString>
        <CharString name="exclam">
          -452 -47 callsubr
          95 27 vstem
          100 183 rmoveto
          17 hlineto
          10 424 rlineto
          93 -37 -93 vlineto
          -5 -607 -36 callsubr
          endchar
        </CharString>
        <CharString name="exclamdown">
          -452 -47 callsubr
          95 27 vstem
          85 635 -36 callsubr
          5 -700 rmoveto
          37 93 hlineto
          -10 424 rlineto
          -17 hlineto
          -10 -424 rlineto
          endchar
        </CharString>
        <CharString name="f">
          -329 -56 callsubr
          hstem
          126 32 vstem
          126 hmoveto
          -99 callsubr
          endchar
        </CharString>
        <CharString name="fi">
          -98 -23 callgsubr
          281 32 hintmask 11011100
          434 -41 callsubr
          hintmask 11101100
          -97 callgsubr
          313 -475 rmoveto
          -12 callgsubr
          hlineto
          endchar
        </CharString>
        <CharString name="five">
          -72 -12 31 370 30 249 32 hstem
          111 32 362 34 vstem
          297 -12 rmoveto
          142 100 92 129 -87 callgsubr
          124 -102 84 -134 -64 -53 -13 -25 -52 vhcurveto
          18 287 rlineto
          350 32 -381 hlineto
          -20 -343 24 -14 rlineto
          31 57 58 15 59 hhcurveto
          118 88 -73 -106 -70 callsubr
          -109 -85 -80 -121 -85 -79 45 60 -54 vhcurveto
          -25 -24 rlineto
          -61 54 92 -51 95 hhcurveto
          endchar
        </CharString>
        <CharString name="fl">
          -98 -23 callsubr
          281 32 hintmask 11101100
          126 hmoveto
          -99 callsubr
          313 -475 rmoveto
          32 hlineto
          hintmask 11011100
          730 -4 callsubr
        </CharString>
        <CharString name="florin">
          -188 -4 29 369 30 250 30 hstem
          73 -4 rmoveto
          63 42 30 97 19 hvcurveto
          50 271 rlineto
          162 30 -156 hlineto
          25 133 rlineto
          88 16 35 29 57 hhcurveto
          18 20 -3 -6 23 hvcurveto
          30 vlineto
          6 -23 -17 3 -24 hhcurveto
          -71 -48 -39 -101 -19 hvcurveto
          -26 -140 rlineto
          -116 -30 110 hlineto
          -49 -266 rlineto
          -77 -15 -32 -26 -46 hhcurveto
          -19 -9 1 3 -13 hvcurveto
          -29 vlineto
          -3 13 9 -1 21 hhcurveto
          endchar
        </CharString>
        <CharString name="four">
          -31 21 -21 178 30 497 -20 hstem
          450 32 vstem
          450 hmoveto
          32 178 115 30 -115 497 -29 hlineto
          -413 -503 11 -24 rlineto
          399 hlineto
          -366 30 rmoveto
          366 447 rlineto
          -447 vlineto
          endchar
        </CharString>
        <CharString name="fraction">
          -263 -77 -21 857 -20 hstem
          -54 -98 rmoveto
          36 hlineto
          469 857 rlineto
          -36 hlineto
          endchar
        </CharString>
        <CharString name="g">
          -17 -163 31 169 31 417 31 -12 -20 hstemhm
          60 35 431 33 hintmask 11011100
          313 -163 rmoveto
          74 64 23 43 43 hvcurveto
          41 41 24 59 74 vvcurveto
          427 -33 -121 vlineto
          hintmask 11101100
          75 -39 -79 58 -102 hhcurveto
          -131 -115 -102 -137 -70 callsubr
          -136 115 -102 131 102 79 58 77 39 vhcurveto
          -91 vlineto
          -141 -86 -72 -127 -78 -70 25 48 -63 vhcurveto
          -19 -26 rlineto
          -52 69 76 -26 85 hhcurveto
          -4 231 rmoveto
          -117 -97 91 117 -87 callgsubr
          119 96 88 118 117 103 -91 -117 -84 callgsubr
          -117 -103 -90 -117 vhcurveto
          endchar
        </CharString>
        <CharString name="germandbls">
          -78 -3 30 -6 -21 706 30 hstemhm
          93 32 327 35 10 34 hintmask 10111100
          273 -3 rmoveto
          152 106 73 121 -87 callgsubr
          104 -91 59 -115 16 vhcurveto
          90 31 72 64 95 -42 callsubr
          94 -77 78 -113 -130 -74 -95 -137 vhcurveto
          hintmask 01111100
          -504 32 503 vlineto
          120 62 83 109 91 65 -66 -78 -84 callgsubr
          -96 -79 -56 -100 -28 vhcurveto
          -28 vlineto
          137 -10 87 -54 -96 -25 callgsubr
          hintmask 10111100
          -104 -91 -57 -133 -2 vhcurveto
          endchar
        </CharString>
        <CharString name="grave">
          -15 callsubr
          273 595 -85 callsubr
        </CharString>
        <CharString name="greater">
          -2 callsubr
          91 104 rmoveto
          462 237 rlineto
          22 vlineto
          -462 237 rlineto
          -35 vlineto
          418 -213 -418 -213 rlineto
          endchar
        </CharString>
        <CharString name="guillemotleft">
          -186 -22 callsubr
          400 45 -44 callsubr
          -170 -207 rlineto
          -6 vlineto
          -14 -207 -40 callgsubr
        </CharString>
        <CharString name="guillemotright">
          -186 -22 callsubr
          267 45 rmoveto
          169 207 rlineto
          6 vlineto
          -169 -43 callgsubr
          -162 -16 -44 callgsubr
        </CharString>
        <CharString name="guilsinglleft">
          -369 -22 callsubr
          216 45 -40 callgsubr
        </CharString>
        <CharString name="guilsinglright">
          -369 -22 callsubr
          83 45 -44 callgsubr
        </CharString>
        <CharString name="h">
          -59 21 -21 486 30 214 -20 hstem
          93 -13 callsubr
          vstem
          -82 callgsubr
          346 -4 callsubr
        </CharString>
        <CharString name="hungarumlaut">
          -15 callsubr
          251 595 rmoveto
          26 hlineto
          104 109 -37 19 rlineto
          -226 -128 rmoveto
          25 hlineto
          105 109 -37 19 rlineto
          endchar
        </CharString>
        <CharString name="hyphen">
          -273 280 35 hstem
          70 280 rmoveto
          256 35 -256 hlineto
          endchar
        </CharString>
        <CharString name="i">
          -39 callsubr
          220 -20 hstem
          99 33 vstem
          94 -26 callgsubr
          5 -704 rmoveto
          33 504 -33 hlineto
          endchar
        </CharString>
        <CharString name="iacute">
          -39 callsubr
          239 -56 callgsubr
          1 91 -91 callgsubr
        </CharString>
        <CharString name="icircumflex">
          -39 callsubr
          233 -56 callgsubr
          -99 91 -96 callsubr
        </CharString>
        <CharString name="idieresis">
          -39 callsubr
          122 64 hstem
          16 50 33 33 32 50 vstem
          99 hmoveto
          33 504 -33 hlineto
          65 102 -95 callgsubr
        </CharString>
        <CharString name="igrave">
          -39 callsubr
          239 -56 callgsubr
          7 91 -85 callsubr
        </CharString>
        <CharString name="j">
          -437 -165 29 640 -20 220 -20 hstem
          101 32 vstem
          95 -26 callgsubr
          -65 -869 rmoveto
          62 41 38 80 hvcurveto
          551 -32 -553 vlineto
          -57 -30 -30 -42 -15 -11 1 3 -11 vhcurveto
          -29 vlineto
          -3 13 7 -1 18 hhcurveto
          endchar
        </CharString>
        <CharString name="k">
          -119 -36 callgsubr
          246 -20 hstem
          93 32 vstem
          93 hmoveto
          32 140 hlineto
          124 119 226 -259 rlineto
          40 hlineto
          -244 281 232 223 rlineto
          -43 hlineto
          -335 -326 rlineto
          552 -4 callsubr
        </CharString>
        <CharString name="l">
          -438 21 -21 730 -49 callsubr
          730 -33 hlineto
          endchar
        </CharString>
        <CharString name="less">
          -2 callsubr
          525 104 rmoveto
          35 vlineto
          -418 213 418 213 rlineto
          35 vlineto
          -462 -237 rlineto
          -22 vlineto
          endchar
        </CharString>
        <CharString name="lslash">
          -390 21 -21 730 -20 hstem
          123 33 vstem
          123 hmoveto
          33 357 hlineto
          78 26 rlineto
          32 vlineto
          -78 -26 rlineto
          341 -33 -351 vlineto
          -78 -25 rlineto
          -32 vlineto
          78 25 rlineto
          endchar
        </CharString>
        <CharString name="m">
          265 -14 callsubr
          hstemhm
          93 32 329 32 329 32 cntrmask 00011100
          hintmask 11011100
          93 hmoveto
          32 293 hlineto
          109 81 84 88 95 65 -67 -120 vhcurveto
          -299 32 294 vlineto
          114 82 78 86 97 64 -66 -122 vhcurveto
          -298 32 301 vlineto
          137 -76 78 -115 -92 -64 -67 -66 -25 vhcurveto
          72 -22 -55 61 -101 hhcurveto
          -90 -60 -66 -59 -22 hvcurveto
          hintmask 10111100
          113 -4 callsubr
        </CharString>
        <CharString name="macron">
          613 32 hstem
          109 613 rmoveto
          282 32 -282 hlineto
          endchar
        </CharString>
        <CharString name="mu">
          176 -80 -21 89 31 662 2 callgsubr
          629 35 vstem
          755 -101 rmoveto
          43 3 hlineto
          -165 155 rlineto
          88 68 51 108 116 vvcurveto
          -101 callsubr
          70 61 18 32 51 vhcurveto
          -180 -19 -103 callsubr
          endchar
        </CharString>
        <CharString name="n">
          -59 -14 callsubr
          hstemhm
          93 -13 callsubr
          hintmask 11011000
          -82 callgsubr
          hintmask 10111000
          120 -4 callsubr
        </CharString>
        <CharString name="nbspace">
          -381 endchar
        </CharString>
        <CharString name="nine">
          -37 -12 31 244 31 387 31 hstemhm
          61 35 416 53 -34 34 hintmask 11111000
          286 -12 rmoveto
          169 110 161 219 -87 callgsubr
          134 -31 83 -54 54 vhcurveto
          41 -42 -59 30 -75 hhcurveto
          -139 -104 -103 -127 -70 callsubr
          -126 104 -91 139 116 88 77 93 22 vhcurveto
          hintmask 11110100
          -18 1 -27 -18 -25 callgsubr
          -199 -1 -93 -150 -150 hhcurveto
          -67 -63 30 52 -55 hvcurveto
          -22 -26 rlineto
          -51 55 72 -36 79 hhcurveto
          20 306 rmoveto
          -121 -89 77 110 -87 callgsubr
          106 87 92 118 vhcurveto
          hintmask 11111000
          119 92 -87 -109 -70 callsubr
          -100 -89 -89 -117 vhcurveto
          endchar
        </CharString>
        <CharString name="ntilde">
          -59 -14 callsubr
          118 -38 callgsubr
          93 -13 callsubr
          hintmask 11011011
          -82 callgsubr
          hintmask 10111011
          120 -32 vlineto
          98 91 -84 callsubr
          hintmask 11010111
          -67 callgsubr
          hintmask 11011011
          -79 callsubr
        </CharString>
        <CharString name="numbersign">
          7 0 226 -31 31 254 30 -30 220 hstemhm
          hintmask 10100000
          133 hmoveto
          31 hlineto
          hintmask 01100000
          34 195 rlineto
          226 hlineto
          hintmask 10100000
          -33 -195 rlineto
          31 hlineto
          hintmask 01100000
          33 195 rlineto
          131 31 -125 hlineto
          43 254 rlineto
          122 30 -117 hlineto
          hintmask 10010000
          33 -12 callsubr
          -226 hlineto
          hintmask 10010000
          32 -12 callsubr
          -131 -30 126 hlineto
          -44 -254 rlineto
          -122 hlineto
          hintmask 01100000
          -31 117 vlineto
          hintmask 10100000
          37 30 rmoveto
          44 255 rlineto
          226 hlineto
          -44 -255 rlineto
          endchar
        </CharString>
        <CharString name="o">
          -38 callsubr
          -103 callgsubr
          endchar
        </CharString>
        <CharString name="oacute">
          -88 callsubr
          -16 577 -91 callgsubr
        </CharString>
        <CharString name="ocircumflex">
          -38 callsubr
          201 -20 -103 callgsubr
          -116 577 -96 callsubr
        </CharString>
        <CharString name="odieresis">
          -38 callsubr
          90 64 hstem
          57 35 127 -10 callsubr
          128 -105 callsubr
          48 588 -95 callgsubr
        </CharString>
        <CharString name="oe">
          399 -55 callgsubr
          hstem
          -20 callsubr
          32 403 35 vstem
          317 -12 rmoveto
          120 92 74 104 31 hvcurveto
          -113 31 95 -65 106 hhcurveto
          98 64 43 55 45 hvcurveto
          -23 20 rlineto
          -50 -40 -59 -38 -84 hhcurveto
          -113 -97 86 136 -6 hvcurveto
          438 -76 callgsubr
          -108 -87 -69 -107 -29 vhcurveto
          104 -31 -93 72 -118 hhcurveto
          -154 -42 callgsubr
          -70 callsubr
          -141 107 -121 153 vhcurveto
          260 281 rmoveto
          124 7 83 93 115 -60 callsubr
          -661 -251 -99 callgsubr
          endchar
        </CharString>
        <CharString name="ogonek">
          -161 22 149 -20 hstem
          194 33 vstem
          356 -161 rmoveto
          22 vlineto
          -88 5 -41 30 57 vvcurveto
          15 2 22 5 20 vhcurveto
          -26 hlineto
          -8 -19 -6 -22 -22 vvcurveto
          -66 54 -44 108 2 vhcurveto
          endchar
        </CharString>
        <CharString name="ograve">
          -88 callsubr
          -10 577 -85 callsubr
        </CharString>
        <CharString name="one">
          -346 21 -21 705 -20 hstem
          175 33 vstem
          175 hmoveto
          33 705 -26 hlineto
          -150 -63 11 -27 132 53 rlineto
          endchar
        </CharString>
        <CharString name="ordfeminine">
          -261 308 25 80 24 131 23 87 24 hstem
          76 28 188 26 vstem
          183 413 rmoveto
          55 36 27 29 18 hvcurveto
          -50 26 173 vlineto
          35 -9 26 -18 18 vhcurveto
          21 -22 -29 10 -39 hhcurveto
          -39 -29 -9 -15 -32 hvcurveto
          10 -24 rlineto
          14 28 26 10 34 hhcurveto
          58 35 -29 -58 hvcurveto
          -13 vlineto
          8 -26 -28 5 -38 hhcurveto
          -72 -52 -31 -59 hvcurveto
          0 0 -1 -1 vvcurveto
          -57 54 -29 53 vhcurveto
          -109 -105 rmoveto
          249 25 -249 hlineto
          110 104 rmoveto
          -42 -38 23 41 -87 callgsubr
          40 38 25 56 40 29 -6 -7 25 vhcurveto
          -32 vlineto
          -48 -47 -38 -61 vhcurveto
          endchar
        </CharString>
        <CharString name="ordmasculine">
          -260 308 25 80 26 240 26 hstem
          61 29 229 29 vstem
          204 413 rmoveto
          84 60 68 78 -87 callgsubr
          78 -59 66 -84 -85 -59 -67 -79 -84 callgsubr
          -77 58 -67 85 vhcurveto
          -140 -105 rmoveto
          281 25 -281 hlineto
          142 106 rmoveto
          -67 -49 54 66 -87 callgsubr
          64 47 54 67 65 50 -54 -66 -84 callgsubr
          -64 -47 -54 -66 vhcurveto
          endchar
        </CharString>
        <CharString name="oslash">
          -33 -12 30 -2 -21 491 30 1 -20 hstemhm
          -20 callsubr
          34 hintmask 10011100
          -83 callsubr
          69 -25 63 -44 48 vhcurveto
          80 83 rlineto
          -38 hlineto
          -61 -65 rlineto
          hintmask 01101100
          40 -45 -59 24 -68 hhcurveto
          -155 -42 callgsubr
          -70 callsubr
          -68 26 -65 43 -47 vhcurveto
          -72 -75 rlineto
          38 hlineto
          54 56 rlineto
          hintmask 10101100
          -39 44 59 -24 69 hhcurveto
          -169 106 rmoveto
          -36 42 -21 55 60 vvcurveto
          -66 callgsubr
          60 53 -22 -36 39 vhcurveto
          -150 -410 rmoveto
          -60 -52 22 35 -40 hvcurveto
          320 334 rlineto
          36 -41 22 -55 -60 -25 callgsubr
          -127 -93 -106 -4 callgsubr
          endchar
        </CharString>
        <CharString name="otilde">
          -38 callsubr
          86 -38 callgsubr
          -20 callsubr
          34 hintmask 11110110
          -106 callgsubr
          -120 577 -85 callgsubr
        </CharString>
        <CharString name="p">
          -32 callsubr
          -12 -20 hstemhm
          1 callgsubr
          hintmask 11101100
          -65 callgsubr
          hintmask 11011100
          139 -32 vlineto
          252 -485 -30 callgsubr
          hintmask 11101100
          -68 callgsubr
        </CharString>
        <CharString name="paragraph">
          -202 -47 callsubr
          332 35 vstem
          332 hmoveto
          35 700 -59 hlineto
          -148 -108 -79 -131 -70 callsubr
          -135 120 -76 151 vhcurveto
          9 hlineto
          endchar
        </CharString>
        <CharString name="parenleft">
          -7 callsubr
          69 34 vstem
          337 -140 rmoveto
          14 22 rlineto
          -162 95 -86 141 169 vvcurveto
          169 86 141 162 95 vhcurveto
          -14 22 rlineto
          -175 -99 -93 -149 -179 vvcurveto
          -179 93 -149 175 -99 vhcurveto
          endchar
        </CharString>
        <CharString name="parenright">
          -7 callsubr
          303 34 vstem
          69 -140 rmoveto
          175 99 93 149 179 vvcurveto
          179 -93 149 -175 99 vhcurveto
          -14 -22 rlineto
          162 -95 86 -141 -169 vvcurveto
          -169 -86 -141 -162 -95 vhcurveto
          endchar
        </CharString>
        <CharString name="percent">
          137 -46 callsubr
          hintmask 0101101111000000
          -58 callgsubr
          hintmask 0110011111000000
          514 700 rlineto
          -34 hlineto
          hintmask 1010101111000000
          -46 -708 rmoveto
          -87 callsubr
          hintmask 1001101111000000
          -52 callgsubr
          388 -9 callsubr
          hintmask 1010101111000000
          -24 callgsubr
          endchar
        </CharString>
        <CharString name="period">
          -479 21 -3 callsubr
          hmoveto
          48 65 -48 hlineto
          endchar
        </CharString>
        <CharString name="periodcentered">
          -479 283 -3 callsubr
          262 -36 callsubr
          endchar
        </CharString>
        <CharString name="perthousand">
          510 -46 callsubr
          63 34 242 34 hintmask 0101101111110000
          -58 callgsubr
          hintmask 0110011111110000
          514 700 rlineto
          -34 hlineto
          hintmask 1010101111110000
          327 -708 rmoveto
          -87 callsubr
          -373 hmoveto
          -87 callsubr
          hintmask 1001101111110000
          -52 callgsubr
          761 -9 callsubr
          hintmask 1010101111110000
          -24 callgsubr
          -373 hmoveto
          -57 callsubr
          -81 -47 -68 -73 vhcurveto
          endchar
        </CharString>
        <CharString name="pi">
          161 -12 21 295 27 177 27 156 21 hstem
          53 23 228 29 217 29 175 -98 callgsubr
          -111 160 rmoveto
          29 135 101 hlineto
          80 65 40 77 -87 callgsubr
          71 -55 41 -85 vhcurveto
          -135 hlineto
          29 -204 rmoveto
          177 104 vlineto
          69 44 -30 -57 -70 callsubr
          -55 -46 -33 -70 vhcurveto
          endchar
        </CharString>
        <CharString name="plus">
          -82 146 -21 212 30 212 -20 hstem
          278 32 vstem
          278 125 rmoveto
          32 212 206 30 -206 212 -32 -212 -207 -30 207 hlineto
          endchar
        </CharString>
        <CharString name="plusminus">
          -93 -12 31 319 31 312 31 hstemhm
          470 35 -17 35 hintmask 11101000
          290 -12 rmoveto
          130 103 83 113 -87 callgsubr
          102 -77 51 -91 18 vhcurveto
          hintmask 11110000
          78 16 72 57 97 -42 callsubr
          101 -91 82 -130 -104 -79 -54 -77 -51 vhcurveto
          26 -16 rlineto
          70 49 67 46 91 hhcurveto
          110 77 -68 -85 -70 callsubr
          -97 -85 -60 -115 vhcurveto
          -76 -31 75 hlineto
          hintmask 11101000
          131 88 -49 -104 -70 callsubr
          -100 -88 -64 -109 -98 -79 47 71 -51 vhcurveto
          -28 -21 rlineto
          -75 56 89 -53 110 hhcurveto
          endchar
        </CharString>
        <CharString name="q">
          -32 callsubr
          -12 -20 hstemhm
          60 34 438 32 hintmask 11011100
          532 -160 rmoveto
          32 664 -32 -137 hlineto
          hintmask 11101100
          -33 callgsubr
          -2 callgsubr
          110 78 67 84 35 vhcurveto
          -220 -120 -57 callgsubr
        </CharString>
        <CharString name="question">
          -156 21 -21 679 30 hstem
          214 28 185 34 vstem
          219 183 rmoveto
          19 hlineto
          8 135 rlineto
          112 12 103 65 122 -42 callsubr
          105 -84 85 -129 -99 -71 -50 -73 -50 vhcurveto
          25 -19 rlineto
          67 46 67 45 81 hhcurveto
          108 72 -72 -90 -70 callsubr
          -101 -87 -62 -127 -6 vhcurveto
          -4 -4 rlineto
          -4 -342 -36 callsubr
          endchar
        </CharString>
        <CharString name="questiondown">
          -156 -9 30 679 -20 hstem
          52 34 185 28 vstem
          260 635 -36 callsubr
          5 -709 rmoveto
          99 71 50 73 50 hvcurveto
          -25 19 rlineto
          -67 -46 -67 -45 -81 hhcurveto
          -108 -72 72 90 -87 callgsubr
          101 87 62 127 6 vhcurveto
          4 4 -10 159 rlineto
          -19 hlineto
          -8 -135 rlineto
          -112 -12 -103 -65 -122 -25 callgsubr
          -105 84 -85 129 vhcurveto
          endchar
        </CharString>
        <CharString name="quotedbl">
          -323 467 -21 254 -20 hstem
          212 446 -31 callsubr
          -184 -254 -31 callsubr
          endchar
        </CharString>
        <CharString name="quotedblbase">
          -353 -31 callgsubr
          78 48 vstem
          190 -91 rmoveto
          39 15 -86 callsubr
          -117 -17 -64 callsubr
        </CharString>
        <CharString name="quotedblleft">
          -353 568 -11 callsubr
          69 48 78 48 vstem
          195 547 -63 callsubr
          -126 -57 -63 callsubr
          endchar
        </CharString>
        <CharString name="quotedblright">
          -353 564 -11 callsubr
          73 48 78 48 vstem
          192 -37 callgsubr
          -117 -18 rmoveto
          39 16 -70 callgsubr
        </CharString>
        <CharString name="quoteleft">
          -479 568 -11 callsubr
          69 48 vstem
          69 547 -63 callsubr
          endchar
        </CharString>
        <CharString name="quoteright">
          -479 564 -11 callsubr
          73 48 vstem
          66 -37 callgsubr
          endchar
        </CharString>
        <CharString name="quotesinglbase">
          -59 callsubr
        </CharString>
        <CharString name="quotesingle">
          -471 467 -21 254 -20 hstem
          63 446 -31 callsubr
          endchar
        </CharString>
        <CharString name="r">
          -308 21 -21 481 33 -10 -20 hstemhm
          93 32 hintmask 11010000
          93 hmoveto
          32 239 hlineto
          124 87 118 122 vhcurveto
          1 3 0 1 hhcurveto
          33 vlineto
          -107 3 -77 -81 -30 -86 rrcurveto
          hintmask 10110000
          154 -4 callsubr
        </CharString>
        <CharString name="radical">
          242 -23 callsubr
          308 32 281 32 hintmask 11101110
          -91 callsubr
          653 -475 rmoveto
          32 hlineto
          hintmask 11011110
          730 -4 callsubr
        </CharString>
        <CharString name="registered">
          161 -12 21 320 27 160 27 148 21 hstem
          53 23 205 30 230 30 183 -98 callgsubr
          -134 168 rmoveto
          30 152 116 hlineto
          3 hlineto
          118 -152 rlineto
          37 hlineto
          -121 156 rlineto
          64 9 43 35 61 -42 callsubr
          27 -10 23 -18 17 vhcurveto
          23 -22 -37 13 -46 hhcurveto
          -157 hlineto
          30 -187 rmoveto
          160 125 vlineto
          66 39 -30 -48 -70 callsubr
          -50 -42 -30 -65 vhcurveto
          endchar
        </CharString>
        <CharString name="ring">
          594 22 142 22 hstem
          153 25 144 25 vstem
          250 594 -73 callsubr
        </CharString>
        <CharString name="s">
          -176 -9 30 462 30 -89 callsubr
          endchar
        </CharString>
        <CharString name="scaron">
          -176 -9 30 462 30 204 -20 -89 callsubr
          -16 604 -79 callgsubr
        </CharString>
        <CharString name="section">
          -37 -10 32 203 22 206 22 203 32 hstem
          70 34 28 36 297 35 29 34 vstem
          321 -10 rmoveto
          111 68 52 69 -87 callgsubr
          56 -47 35 -65 21 vhcurveto
          111 64 50 61 -87 callgsubr
          65 -61 39 -135 28 vhcurveto
          -136 28 -63 32 57 -42 callsubr
          51 51 38 91 75 74 -33 -38 41 vhcurveto
          24 24 rlineto
          44 -47 -81 35 -84 hhcurveto
          -111 -69 -52 -69 -70 callsubr
          -56 48 -35 65 -21 vhcurveto
          -111 -64 -50 -61 -70 callsubr
          -65 61 -39 135 -28 vhcurveto
          136 -28 63 -32 -57 -25 callgsubr
          -51 -51 -38 -91 -75 -74 33 38 -42 vhcurveto
          -23 -24 rlineto
          -44 46 82 -35 84 hhcurveto
          65 257 rmoveto
          -33 -36 3 11 -46 hvcurveto
          -122 26 -45 32 46 -42 callsubr
          48 62 38 81 33 35 -3 -11 47 vhcurveto
          122 -26 45 -32 -46 -25 callgsubr
          -48 -62 -38 -81 vhcurveto
          endchar
        </CharString>
        <CharString name="semicolon">
          -472 -70 -21 112 -25 callsubr
          -7 -595 rmoveto
          40 15 15 -90 callsubr
          endchar
        </CharString>
        <CharString name="seven">
          -114 21 -21 668 32 hstem
          145 hmoveto
          37 hlineto
          335 677 rlineto
          23 -459 -32 421 vlineto
          endchar
        </CharString>
        <CharString name="six">
          -37 -12 31 381 30 251 31 hstemhm
          68 34 -34 52 416 35 hintmask 11110100
          329 -12 rmoveto
          137 105 102 124 -87 callgsubr
          125 -108 89 -135 -117 -86 -77 -88 -22 vhcurveto
          -1 21 0 26 17 -42 callsubr
          201 1 91 149 150 hhcurveto
          68 59 -28 -48 52 hvcurveto
          22 26 rlineto
          51 -58 -64 30 -76 hhcurveto
          -174 -105 -165 -216 -70 callsubr
          -135 29 -80 56 -55 vhcurveto
          -42 41 61 -29 74 hhcurveto
          2 31 rmoveto
          hintmask 11101100
          -118 -93 87 106 -87 callgsubr
          97 91 89 116 120 89 -79 -106 -84 callgsubr
          -103 -86 -91 -119 vhcurveto
          endchar
        </CharString>
        <CharString name="slash">
          -186 -8 callsubr
          -18 -128 rmoveto
          33 hlineto
          471 926 rlineto
          -33 hlineto
          endchar
        </CharString>
        <CharString name="space">
          -381 endchar
        </CharString>
        <CharString name="sterling">
          -52 0 31 282 32 334 31 hstem
          156 34 vstem
          67 hmoveto
          497 31 -374 282 300 32 -300 119 hlineto
          75 21 58 35 34 vhcurveto
          31 31 38 17 54 hhcurveto
          81 52 -42 -56 40 hvcurveto
          26 20 rlineto
          62 -43 -63 47 -92 hhcurveto
          -62 -49 -21 -37 -37 hvcurveto
          -42 -42 -24 -64 -84 vvcurveto
          -117 -89 -32 89 -282 vlineto
          -89 -13 rlineto
          endchar
        </CharString>
        <CharString name="t">
          -285 -9 30 454 29 169 -20 hstemhm
          120 32 -32 213 hintmask 11101000
          254 -9 rmoveto
          28 26 5 12 25 hvcurveto
          31 vlineto
          -12 -26 -25 -6 -25 hhcurveto
          hintmask 11110000
          -66 -39 37 74 hvcurveto
          343 183 29 -183 169 -32 -169 -77 -29 77 -346 vlineto
          -91 53 -47 81 vhcurveto
          endchar
        </CharString>
        <CharString name="thorn">
          -32 callsubr
          214 -20 hstem
          1 callgsubr
          vstem
          -65 callgsubr
          365 -32 vlineto
          252 -711 -58 callsubr
        </CharString>
        <CharString name="three">
          -103 -12 31 332 31 286 32 hstem
          474 34 vstem
          281 -12 rmoveto
          122 105 81 116 1 0 1 0 hvcurveto
          131 -111 61 -157 3 vhcurveto
          257 294 rlineto
          24 -432 -32 386 vlineto
          -260 -297 10 -20 -19 callsubr
          143 101 -51 -114 -70 callsubr
          -97 -88 -68 -104 -97 -78 46 70 -53 vhcurveto
          -26 -22 rlineto
          -73 55 87 -52 111 hhcurveto
          endchar
        </CharString>
        <CharString name="tilde">
          602 32 -18 -21 58 33 6 -20 hstemhm
          hintmask 01100000
          131 595 rmoveto
          45 15 15 13 24 hhcurveto
          hintmask 10010000
          -74 callsubr
          -67 callgsubr
          hintmask 01100000
          -79 callsubr
        </CharString>
        <CharString name="trademark">
          1 413 -21 285 23 hstem
          127 23 175 23 252 23 vstem
          325 392 rmoveto
          23 266 hlineto
          124 -181 rlineto
          3 hlineto
          125 181 rlineto
          -266 23 308 -23 vlineto
          -126 -185 -126 185 rlineto
          -23 hlineto
          -198 -308 rmoveto
          23 285 106 23 -235 -23 106 hlineto
          endchar
        </CharString>
        <CharString name="two">
          -93 0 32 648 30 hstem
          475 35 vstem
          43 hmoveto
          476 32 -421 hlineto
          262 248 rlineto
          118 112 32 59 75 -42 callsubr
          101 -85 81 -122 -117 -73 -61 -89 -52 vhcurveto
          27 -17 rlineto
          82 49 67 55 97 hhcurveto
          99 75 -68 -87 -60 -26 -59 -111 -104 hvcurveto
          -295 -279 rlineto
          endchar
        </CharString>
        <CharString name="u">
          -48 callgsubr
          hstemhm
          83 32 370 32 hintmask 10111000
          -61 callsubr
          hintmask 01111000
          -54 callsubr
          hintmask 10111000
          -90 callgsubr
          endchar
        </CharString>
        <CharString name="uacute">
          -82 callsubr
          -23 605 -91 callgsubr
        </CharString>
        <CharString name="ucircumflex">
          -48 callgsubr
          233 -94 callsubr
          -103 607 -96 callsubr
        </CharString>
        <CharString name="udieresis">
          -48 callgsubr
          119 64 hstemhm
          83 32 89 -10 callsubr
          83 32 hintmask 10111111
          -61 callsubr
          hintmask 01111111
          -54 callsubr
          hintmask 10111111
          -90 callgsubr
          61 615 -95 callgsubr
        </CharString>
        <CharString name="ugrave">
          -82 callsubr
          21 605 -85 callsubr
        </CharString>
        <CharString name="underscore">
          -99 -153 29 hstem
          -2 -153 rmoveto
          574 29 -574 hlineto
          endchar
        </CharString>
        <CharString name="v">
          -100 17 -21 508 -20 hstem
          272 -4 rmoveto
          26 hlineto
          230 508 rlineto
          -35 hlineto
          -208 -469 -207 469 rlineto
          -37 hlineto
          endchar
        </CharString>
        <CharString name="w">
          158 17 -21 508 -20 23 -20 hstemhm
          hintmask 11000000
          228 -4 rmoveto
          27 hlineto
          159 460 158 -460 rlineto
          27 hlineto
          179 508 rlineto
          -33 hlineto
          -159 -462 rlineto
          hintmask 10100000
          -159 465 rlineto
          -26 hlineto
          -159 -465 rlineto
          hintmask 11000000
          -158 462 rlineto
          -36 hlineto
          endchar
        </CharString>
        <CharString name="x">
          -123 -36 callgsubr
          hstem
          38 hmoveto
          38 hlineto
          197 235 195 -235 rlineto
          40 hlineto
          -215 257 207 247 rlineto
          -38 hlineto
          -189 -226 -187 226 rlineto
          -40 hlineto
          207 -248 rlineto
          endchar
        </CharString>
        <CharString name="y">
          -92 -163 30 637 -20 hstem
          -93 callgsubr
          endchar
        </CharString>
        <CharString name="yacute">
          -92 -163 30 637 -20 237 -20 hstem
          -93 callgsubr
          144 756 -91 callgsubr
        </CharString>
        <CharString name="ydieresis">
          -92 -163 30 637 -20 119 64 hstem
          193 -10 callsubr
          vstem
          -93 callgsubr
          196 766 -95 callgsubr
        </CharString>
        <CharString name="yen">
          -24 21 -21 122 30 129 30 389 -20 hstem
          306 33 vstem
          306 hmoveto
          33 122 208 30 -208 129 208 30 -194 hlineto
          266 389 rlineto
          -40 hlineto
          -255 -382 -256 382 rlineto
          -42 hlineto
          266 -389 rlineto
          -195 -30 209 -129 -209 -30 209 hlineto
          endchar
        </CharString>
        <CharString name="z">
          -155 0 29 446 29 -49 callgsubr
          endchar
        </CharString>
        <CharString name="zcaron">
          -155 0 29 446 29 213 -20 -49 callgsubr
          208 577 -79 callgsubr
        </CharString>
        <CharString name="zero">
          41 -26 callsubr
          hstem
          67 35 506 35 vstem
          355 -12 rmoveto
          180 108 -35 callgsubr
          2 vlineto
          193 -107 168 -181 -180 -108 -170 -191 -84 callgsubr
          -193 107 -168 181 vhcurveto
          1 31 rmoveto
          -159 -95 159 172 -87 callgsubr
          173 93 156 159 159 95 -159 -172 -84 callgsubr
          -172 -93 -157 -159 vhcurveto
          endchar
        </CharString>
      <CharString index="0">
        422 -12 rmoveto
        212 138 -35 callgsubr
        -101 callsubr
        vhcurveto
        2 31 -103 callsubr
        return
      </CharString>
      <CharString index="1">
        -83 callsubr
        141 -106 121 -154 -155 -42 callgsubr
        -84 callgsubr
        -141 107 -121 154 vhcurveto
        1 30 -99 callgsubr
        return
      </CharString>
      <CharString index="2">
        -105 32 314 vlineto
        62 -18 48 -32 33 vhcurveto
        37 -37 -54 18 -69 hhcurveto
        -67 -55 -17 -27 -56 hvcurveto
        12 -28 rlineto
        25 50 52 17 62 hhcurveto
        112 68 -56 3 callgsubr
        -34 vlineto
        16 -49 -61 12 -70 hhcurveto
        -128 -95 -57 -105 -70 callsubr
        return
      </CharString>
      <CharString index="3">
        hstem
        73 35 629 -107 callsubr
        return
      </CharString>
      <CharString index="4">
        hstem
        -20 callsubr
        -105 callsubr
        return
      </CharString>
      <CharString index="5">
        -15 callgsubr
        hintmask 10111110
        -74 callgsubr
        hintmask 01111110
        -105 callgsubr
        hintmask 10111110
        -101 callgsubr
        return
      </CharString>
      <CharString index="6">
        -102 94 -52 97 vhcurveto
        2 30 rmoveto
        -84 -75 43 83 -87 callgsubr
        83 77 47 111 75 58 -12 -16 49 vhcurveto
        -62 vlineto
        -90 -89 -78 -122 vhcurveto
        return
      </CharString>
      <CharString index="7">
        34 vstem
        378 -11 rmoveto
        169 115 107 209 hvcurveto
        395 -34 -398 vlineto
        -188 -98 -94 -151 -152 -100 98 186 vhcurveto
        396 -34 -398 vlineto
        -207 117 -106 168 vhcurveto
        return
      </CharString>
      <CharString index="8">
        rmoveto
        -131 -96 106 127 hvcurveto
        -66 callgsubr
        131 97 -106 -127 -84 callgsubr
        -127 -93 -106 -4 callgsubr
        return
      </CharString>
      <CharString index="9">
        23 vstem
        415 -12 rmoveto
        201 161 163 198 -87 callgsubr
        199 -160 162 -202 -201 -161 -163 -198 -84 callgsubr
        -199 160 -162 202 vhcurveto
        21 vmoveto
        -190 -149 153 187 -87 callgsubr
        186 149 154 190 190 149 -153 -187 -84 callgsubr
        -186 -149 -154 -190 vhcurveto
        return
      </CharString>
      <CharString index="10">
        -88 callgsubr
        -21 -21 5 -31 hhcurveto
        -42 -33 -13 -24 -24 hvcurveto
        -28 -80 callsubr
        return
      </CharString>
      <CharString index="11">
        -20 hstem
        93 34 501 -100 callgsubr
        return
      </CharString>
      <CharString index="12">
        rmoveto
        50 64 -50 hlineto
        -148 -64 rmoveto
        50 64 -50 hlineto
        endchar
      </CharString>
      <CharString index="13">
        -20 hstem
        -100 callsubr
        return
      </CharString>
      <CharString index="14">
        145 -163 rmoveto
        68 43 30 120 53 hvcurveto
        227 517 rlineto
        -34 hlineto
        -203 -469 -222 469 rlineto
        -36 hlineto
        242 -503 rlineto
        -107 -48 -33 -27 -56 hhcurveto
        -32 -29 9 13 -24 hvcurveto
        -13 -27 rlineto
        -14 27 33 -11 37 hhcurveto
        return
      </CharString>
      <CharString index="15">
        hstem
        86 34 420 34 vstem
        338 -10 rmoveto
        143 93 80 108 -87 callgsubr
        98 -63 56 -174 35 vhcurveto
        -170 35 -47 45 81 -42 callsubr
        78 76 69 115 82 73 -27 -51 64 vhcurveto
        21 27 rlineto
        52 -66 -76 30 -96 hhcurveto
        -132 -95 -81 -100 -70 callsubr
        -101 67 -54 171 -34 vhcurveto
        169 -35 47 -44 -82 -25 callgsubr
        -88 -79 -66 -121 -102 -82 36 70 -74 vhcurveto
        -23 -25 rlineto
        -73 79 91 -39 109 hhcurveto
        return
      </CharString>
      <CharString index="16">
        rmoveto
        25 hlineto
        107 108 -39 20 rlineto
        endchar
      </CharString>
      <CharString index="17">
        -115 -84 -87 -106 -117 -63 79 117 vhcurveto
        290 -32 -295 vlineto
        -131 75 -90 133 vhcurveto
        return
      </CharString>
      <CharString index="18">
        40 hmoveto
        35 hlineto
        96 204 rlineto
        433 hlineto
        95 -204 rlineto
        37 hlineto
        return
      </CharString>
      <CharString index="19">
        95 40 43 70 26 24 -4 -9 23 vhcurveto
        31 vlineto
        8 return
      </CharString>
      <CharString index="20">
        hvcurveto
        2 vlineto
        return
      </CharString>
      <CharString index="21">
        -18 callgsubr
        498 31 -464 306 415 31 -415 301 459 31 -493 hlineto
        return
      </CharString>
      <CharString index="22">
        -84 callsubr
        hintmask 11101110
        -67 callgsubr
        hintmask 11110110
        -79 callsubr
      </CharString>
      <CharString index="23">
        vhcurveto
        -2 vlineto
        return
      </CharString>
      <CharString index="24">
        hstem
        104 34 -86 callgsubr
        return
      </CharString>
      <CharString index="25">
        93 hmoveto
        32 284 hlineto
        115 84 87 106 117 63 -79 -117 vhcurveto
        -290 32 295 vlineto
        131 -75 90 -133 -108 -63 -72 -60 -23 vhcurveto
        return
      </CharString>
      <CharString index="26">
        -60 callgsubr
        7 -35 rlineto
        2 -9 8 1 0 vvcurveto
        return
      </CharString>
      <CharString index="27">
        -29 callgsubr
        127 152 187 return
      </CharString>
      <CharString index="28">
        rmoveto
        24 hlineto
        103 122 rlineto
        -28 hlineto
        -87 -85 -86 85 rlineto
        -29 hlineto
        endchar
      </CharString>
      <CharString index="29">
        -3 15 rlineto
        -2 -2 -1 -2 -1 hvcurveto
        -12 -23 rlineto
        -8 -11 0 0 hvcurveto
        -18 callsubr
        0 9 -1 5 9 vhcurveto
        9 16 rlineto
        -10 1 -9 6 8 vvcurveto
        10 8 5 12 12 15 0 0 vhcurveto
        -81 callgsubr
        return
      </CharString>
      <CharString index="30">
        vstem
        324 hmoveto
        34 287 hlineto
        297 413 rlineto
        -41 hlineto
        -272 -383 -274 383 rlineto
        -42 hlineto
        298 -413 rlineto
        return
      </CharString>
      <CharString index="31">
        hlineto
        4 0 2 5 vvcurveto
        135 -79 130 -152 return
      </CharString>
      <CharString index="32">
        3 hlineto
        0 3 -9 9 vhcurveto
        4 hlineto
        -3 16 rlineto
        5 -1 -2 1 -3 hhcurveto
        -4 hlineto
        -14 1 -13 0 hvcurveto
        -4 hlineto
        0 1 13 -1 4 vhcurveto
        12 33 0 0 hvcurveto
        -81 callgsubr
        return
      </CharString>
      <CharString index="33">
        242 -12 rmoveto
        116 70 62 55 26 hvcurveto
        return
      </CharString>
      <CharString index="34">
        -53 callsubr
        208 -94 callgsubr
        return
      </CharString>
      <CharString index="35">
        -23 20 rlineto
        -49 -44 -57 -41 -80 hhcurveto
        -126 -99 107 127 hvcurveto
        -24 callsubr
        96 105 127 80 55 -39 -47 44 vhcurveto
        23 23 rlineto
        51 -49 -59 42 -93 hhcurveto
        -146 -112 -121 -142 -70 callsubr
        return
      </CharString>
      <CharString index="36">
        rmoveto
        201 430 202 -430 rlineto
        return
      </CharString>
      <CharString index="37">
        -86 callsubr
        endchar
      </CharString>
      <CharString index="38">
        -29 hlineto
        -18 callsubr
        0 9 -1 -2 9 vhcurveto
        return
      </CharString>
      <CharString index="39">
        130 98 102 124 125 93 -100 -133 -84 callgsubr
        -135 -91 -96 -127 vhcurveto
        endchar
      </CharString>
      <CharString index="40">
        -22 5 rlineto
        -44 -15 -15 -14 -24 hhcurveto
        return
      </CharString>
      <CharString index="41">
        -24 callsubr
        92 106 133 return
      </CharString>
      <CharString index="42">
        93 -160 rmoveto
        32 297 hlineto
        -83 34 78 -66 111 hhcurveto
        -72 callsubr
        return
      </CharString>
      <CharString index="43">
        21 -21 700 -20 return
      </CharString>
      <CharString index="44">
        -53 callgsubr
        193 -20 -83 callgsubr
        return
      </CharString>
      <CharString index="45">
        -20 hstem
        111 34 vstem
        -47 callgsubr
        return
      </CharString>
      <CharString index="46">
        79 48 70 72 72 50 -70 -81 -84 callgsubr
        return
      </CharString>
      <CharString index="47">
        -17 callgsubr
        0 -9 1 2 -9 vhcurveto
        return
      </CharString>
      <CharString index="48">
        -5 5 -4 7 7 5 5 9 7 -2 5 -4 3 vhcurveto
        -3 -3 -3 -2 -5 hhcurveto
        -4 -4 3 3 6 7 1 9 -1 hvcurveto
        1 1 1 1 4 vvcurveto
        return
      </CharString>
      <CharString index="49">
        209 349 rmoveto
        -87 callsubr
        -80 -349 rmoveto
        34 hlineto
        return
      </CharString>
      <CharString index="50">
        rmoveto
        -125 -93 100 133 -87 callgsubr
        135 91 96 127 123 99 -102 -130 -84 callgsubr
        -130 -98 -102 -124 vhcurveto
        endchar
      </CharString>
      <CharString index="51">
        -49 callsubr
        504 -33 hlineto
        return
      </CharString>
      <CharString index="52">
        -12 30 222 29 217 30 return
      </CharString>
      <CharString index="53">
        -10 -8 -9 -17 -9 -7 6 7 5 4 5 5 4 3 -2 -3 -3 -2 -2 -2 vhcurveto
        -3 -1 2 -1 hhcurveto
        -2 -1 -1 -2 hvcurveto
        return
      </CharString>
      <CharString index="54">
        -4 -48 callsubr
        return
      </CharString>
      <CharString index="55">
        -387 385 rmoveto
        -57 callsubr
        -80 -47 -69 -73 vhcurveto
        return
      </CharString>
      <CharString index="56">
        176 -26 callsubr
        return
      </CharString>
      <CharString index="57">
        hmoveto
        228 hlineto
        220 152 152 197 -87 callgsubr
        197 -152 152 -220 vhcurveto
        -228 return
      </CharString>
      <CharString index="58">
        hstem
        45 hmoveto
        425 29 -377 hlineto
        375 457 rlineto
        18 -410 -29 363 vlineto
        -376 -457 rlineto
        return
      </CharString>
      <CharString index="59">
        -59 -12 30 3 -52 callsubr
        return
      </CharString>
      <CharString index="60">
        111 hmoveto
        34 700 -34 hlineto
        return
      </CharString>
      <CharString index="61">
        107 21 -21 204 31 return
      </CharString>
      <CharString index="62">
        104 hmoveto
        33 647 hlineto
        516 -647 rlineto
        27 700 -33 -642 hlineto
        -512 642 rlineto
        -31 hlineto
        return
      </CharString>
      <CharString index="63">
        rmoveto
        170 207 rlineto
        6 vlineto
        -170 -43 callgsubr
        endchar
      </CharString>
      <CharString index="64">
        207 -22 -16 153 -194 -153 -194 rlineto
        return
      </CharString>
      <CharString index="65">
        -107 -123 -141 return
      </CharString>
      <CharString index="66">
        rmoveto
        -69 callsubr
        7 -5 6 -18 -2 vhcurveto
        0 0 -31 -2 vvcurveto
        6 10 hlineto
        return
      </CharString>
      <CharString index="67">
        -44 callsubr
        -169 -207 rlineto
        -6 vlineto
        endchar
      </CharString>
      <CharString index="68">
        -71 -51 69 82 -87 callgsubr
        return
      </CharString>
      <CharString index="69">
        32 19 33 6 -20 hstemhm
        return
      </CharString>
      <CharString index="70">
        543 rmoveto
        39 16 -86 callsubr
        return
      </CharString>
      <CharString index="71">
        21 -52 callsubr
        return
      </CharString>
      <CharString index="72">
        170 191 hvcurveto
        return
      </CharString>
      <CharString index="73">
        125 -7 rlineto
        31 vlineto
        -125 -6 6 151 rlineto
        -33 hlineto
        6 -151 return
      </CharString>
      <CharString index="74">
        83 -34 -78 66 -111 hhcurveto
        -136 -113 -110 -153 -70 callsubr
        return
      </CharString>
      <CharString index="75">
        rmoveto
        -16 -14 -6 -9 -19 -18 17 21 16 14 6 9 19 18 -18 -20 vhcurveto
        return
      </CharString>
      <CharString index="76">
        -70 -21 112 -30 callsubr
        return
      </CharString>
      <CharString index="77">
        rmoveto
        -123 -99 102 130 -87 callgsubr
        return
      </CharString>
      <CharString index="78">
        2 vlineto
        177 return
      </CharString>
      <CharString index="79">
        -7 -5 -5 -6 -6 -5 5 8 7 5 5 6 6 5 -4 -9 vhcurveto
        return
      </CharString>
      <CharString index="80">
        -413 -64 callgsubr
        return
      </CharString>
      <CharString index="81">
        643 rmoveto
        43 61 -43 hlineto
        return
      </CharString>
      <CharString index="82">
        vvcurveto
        -2 vlineto
        return
      </CharString>
      <CharString index="83">
        -61 callgsubr
        -81 -47 -68 -73 vhcurveto
        return
      </CharString>
      <CharString index="84">
        -56 callsubr
        -29 -20 hstemhm
        126 32 return
      </CharString>
      <CharString index="85">
        -2 -17 2 vlineto
        0 5 return
      </CharString>
      <CharString index="86">
        3 callsubr
        369 32 return
      </CharString>
      <CharString index="87">
        -11 31 680 -20 return
      </CharString>
      <CharString index="88">
        -12 30 3 -21 return
      </CharString>
      <CharString index="89">
        vstem
        104 hmoveto
        return
      </CharString>
      <CharString index="90">
        1 -3 rlineto
        return
      </CharString>
      <CharString index="91">
        -213 -120 -21 414 28 414 -20 hstem
        return
      </CharString>
      <CharString index="92">
        -20 -21 callgsubr
        return
      </CharString>
      <CharString index="93">
        -20 hstemhm
        83 -13 callsubr
        return
      </CharString>
      <CharString index="94">
        31 662 31 return
      </CharString>
      <CharString index="95">
        32 504 -32 return
      </CharString>
      <CharString index="96">
        rmoveto
        -81 callsubr
        return
      </CharString>
      <CharString index="97">
        34 -18 callgsubr
        34 return
      </CharString>
      <CharString index="98">
        hstem
        103 34 447 34 vstem
        103 hmoveto
        34 return
      </CharString>
      <CharString index="99">
        -6 vhcurveto
        13 vlineto
        8 1 3 -3 -5 vvcurveto
        return
      </CharString>
      <CharString index="100">
        31 301 31 return
      </CharString>
      <CharString index="101">
        306 400 31 -400 301 return
      </CharString>
      <CharString index="102">
        -125 6 rlineto
        -31 vlineto
        125 7 return
      </CharString>
      <CharString index="103">
        -133 vhcurveto
        return
      </CharString>
      <CharString index="104">
        hintmask 100101111100111010110110101010110010110110100000
        -34 return
      </CharString>
      <CharString index="105">
        -154 113 -109 136 return
      </CharString>
      <CharString index="106">
        281 32 hstem
        70 281 rmoveto
        return
      </CharString>
      <CharString index="107">
        rmoveto
        -39 callgsubr
        return
      </CharString>
      <CharString index="108">
        93 32 438 34 return
      </CharString>
      <CharString index="109">
        31 hstem
        73 35 return
      </CharString>
      <CharString index="110">
        -114 hvcurveto
        return
      </CharString>
</ttFont>
